<?xml version="1.0" encoding="UTF-8" standalone="no"?>
<svg
   width="1024"
   height="1024"
   version="1.1"
   id="svg6"
   sodipodi:docname="icon_outlined.svg"
   xml:space="preserve"
   inkscape:version="1.3.2 (091e20e, 2023-11-25, custom)"
   inkscape:export-filename="icon.png"
   inkscape:export-xdpi="24"
   inkscape:export-ydpi="24"
   xmlns:inkscape="http://www.inkscape.org/namespaces/inkscape"
   xmlns:sodipodi="http://sodipodi.sourceforge.net/DTD/sodipodi-0.dtd"
   xmlns="http://www.w3.org/2000/svg"
   xmlns:svg="http://www.w3.org/2000/svg"><defs
     id="defs6" /><sodipodi:namedview
     id="namedview6"
     pagecolor="#505050"
     bordercolor="#eeeeee"
     borderopacity="1"
     inkscape:showpageshadow="0"
     inkscape:pageopacity="0"
     inkscape:pagecheckerboard="0"
     inkscape:deskcolor="#505050"
     inkscape:zoom="1.1201172"
     inkscape:cx="511.55361"
     inkscape:cy="513.78552"
     inkscape:window-width="2560"
     inkscape:window-height="1361"
     inkscape:window-x="-9"
     inkscape:window-y="-9"
     inkscape:window-maximized="1"
     inkscape:current-layer="svg6" /><path
     id="path5"
     style="fill:#f9f9f9;stroke:#ffffff;stroke-width:20;stroke-linecap:butt;stroke-dasharray:none;stroke-opacity:1;paint-order:normal"
     d="M 398.00195 53.244141 C 360.71736 80.177442 323.38329 107.06092 286.01562 133.89453 C 290.10297 155.59403 294.30727 177.27802 298.29492 198.99414 C 299.4746 206.13869 301.71689 213.21664 301.65039 220.52734 C 298.92549 225.2793 294.02394 228.17011 289.85352 231.50977 C 271.34414 245.20072 253.78226 260.15337 234.75781 273.14648 C 210.16727 258.90723 185.9422 243.95391 161.25195 229.94727 C 154.35663 234.23399 148.80686 240.31605 142.60938 245.5 C 124.34923 261.16816 106.86977 277.7003 88.310547 292.98633 L 88.310547 296.5918 C 89.722842 302.17451 91.168057 307.77365 92.248047 313.43945 C 99.176602 349.07914 106.0564 384.71977 113.4668 420.25977 C 115.69324 430.69414 114.79483 441.42586 114.89453 452.00977 C 114.91113 522.79068 114.86123 593.55601 114.92773 664.32031 C 131.42666 667.0286 147.72664 670.79955 164.24219 673.47461 C 204.08553 681.11761 244.52753 684.97273 284.63672 690.80469 C 290.98374 691.61883 297.63067 695.92197 297.86328 702.93359 C 299.02635 719.84791 297.89519 736.84639 298.27734 753.81055 C 330.64383 759.67573 363.14394 764.74344 395.89258 767.9668 C 395.99229 752.33186 396.02649 736.71307 395.87695 721.07812 C 395.82711 715.3791 396.22565 708.84898 400.89453 704.86133 C 404.18435 701.23921 409.26768 700.55859 413.88672 700.52539 C 479.30091 700.60849 544.71571 700.60849 610.11328 700.52539 C 614.73232 700.55862 619.81665 701.23921 623.08984 704.86133 C 627.77535 708.84898 628.17285 715.36248 628.12305 721.07812 C 627.97351 736.69645 627.99012 752.33186 628.12305 767.9668 C 660.85506 764.74344 693.35618 759.67573 725.72266 753.81055 C 725.72266 740.16944 725.77261 726.5122 725.58984 712.87109 C 725.77261 707.77021 725.38967 702.30268 727.73242 697.61719 C 730.93916 692.08431 737.8185 690.97146 743.58398 690.04102 C 765.61579 687.44904 787.56488 684.25915 809.58008 681.45117 C 842.99331 677.34721 875.9581 670.26857 909.07227 664.32031 C 909.13877 587.42499 909.12207 510.54571 909.07227 433.65039 C 909.1055 424.41231 911.63036 415.45759 913.4082 406.46875 C 917.72816 384.76925 922.16454 363.06867 926.31836 341.33594 C 929.39218 326.41545 931.71842 311.31289 935.68945 296.5918 L 935.68945 292.98633 C 911.14875 272.61604 888.07 250.48356 863.5293 230.11328 C 861.00378 230.57851 858.77623 231.95893 856.56641 233.20508 C 834.28537 246.79634 811.68938 259.8543 789.24219 273.14648 C 777.5783 265.50347 766.91054 256.46585 755.76172 248.125 C 744.43012 238.98662 732.31737 230.8275 721.65039 220.9082 C 726.98388 191.88138 732.46812 162.88812 737.98438 133.89453 C 700.6167 107.06092 663.28265 80.160827 625.99805 53.244141 L 623.87109 53.244141 C 598.56609 79.064221 572.81166 104.46978 547.72266 130.50586 C 543.78484 134.31075 539.71401 139.47703 533.59961 138.91211 C 519.19419 138.91211 504.78823 138.92871 490.38281 138.91211 C 484.26841 139.46041 480.21516 134.31075 476.27734 130.50586 C 451.18834 104.46978 425.43391 79.064221 400.12891 53.244141 L 398.00195 53.244141 z M 116.22461 696.7207 C 119.06581 718.51989 123.13731 740.35147 131.91016 760.63867 C 134.65166 768.16537 139.10344 774.96149 141.5625 782.58789 C 132.39089 793.48748 120.02881 800.99766 109.94336 810.9668 C 116.22392 835.74012 122.77025 860.46397 129.01758 885.25391 C 147.32757 883.42623 165.63923 881.46437 183.94922 879.66992 C 187.90365 879.37088 191.89128 878.85599 195.8457 879.4043 C 202.85733 883.85717 208.80528 889.80524 215.21875 895.07227 C 219.40575 898.27901 218.6244 904.11239 219.35547 908.74805 C 220.369 927.52326 222.46194 946.21406 223.625 964.97266 C 249.54477 967.13263 275.49914 969.17741 301.46875 970.75586 C 308.86253 957.48028 315.32492 943.65584 323.96484 931.11133 C 374.59147 949.80347 428.25938 959.80668 482.10938 962.13281 C 502.04766 962.39866 521.95333 962.33219 541.875 962.13281 C 595.7416 959.80668 649.39191 949.80347 700.03516 931.11133 C 708.67508 943.67245 715.13747 957.48028 722.53125 970.75586 C 748.51747 969.16079 774.45424 967.13363 800.39062 964.95703 C 801.52046 946.19843 803.631 927.52326 804.64453 908.74805 C 805.3756 904.11239 804.59421 898.27901 808.78125 895.07227 C 815.17812 889.80524 821.14266 883.85717 828.1543 879.4043 C 831.66011 878.88922 835.21682 879.30546 838.75586 879.55469 C 857.49785 881.36576 876.24043 883.37638 894.98242 885.25391 C 901.22975 860.46397 907.75947 835.75673 914.05664 810.9668 C 903.97119 800.99766 891.60815 793.47087 882.41992 782.58789 C 885.46052 773.81504 890.47894 765.85587 893.51953 757.06641 C 901.46162 737.82597 905.01726 717.24052 907.77539 696.7207 C 892.04077 700.25975 876.10581 702.78564 860.27148 705.75977 C 827.85516 711.25941 795.5728 717.85444 762.89062 721.47656 C 762.82413 735.25059 762.97275 749.04238 762.90625 762.81641 C 763.32163 768.4822 759.70107 773.54936 755.08203 776.45703 C 749.18362 780.19546 742.27104 781.68971 735.69141 783.75 C 713.36052 789.9641 690.72981 795.24804 667.80078 798.82031 C 650.30493 801.34583 632.62772 802.04421 615.08203 804.08789 C 609.51593 804.20419 603.44955 805.36745 598.29883 802.67578 C 593.01518 799.75149 589.89241 793.70414 590.0918 787.72266 C 590.0087 770.52588 590.1416 753.32763 590.0918 736.13086 L 433.9082 736.13086 C 433.8584 753.32763 433.9913 770.52588 433.9082 787.72266 C 434.25712 795.43213 428.57495 803.5727 420.56641 804.2207 C 409.08528 804.95177 397.73696 802.44372 386.28906 802.01172 C 349.98477 799.53605 314.26202 791.51054 279.48633 781.07617 C 271.46117 778.76665 261.64101 773.88086 261.17578 764.37695 C 260.89328 750.08785 261.24229 735.78228 261.10938 721.47656 C 243.97906 719.91472 227.08138 716.49229 210.08398 714 C 178.81411 708.11821 147.34495 703.33357 116.22461 696.7207 z " /><g
     id="g6"
     style="display:inline;stroke:none;stroke-width:10;stroke-linecap:butt;stroke-dasharray:none;stroke-opacity:1;paint-order:normal"
     inkscape:label="g6"><path
       fill="#000000"
       opacity="1"
       d="m 398.00273,53.244502 h 2.12676 c 25.30503,25.820106 51.05868,51.224828 76.14771,77.260938 3.93782,3.80489 7.99194,8.95562 14.10635,8.40732 14.40543,0.0166 28.81085,0 43.21628,0 6.11441,0.56492 10.18515,-4.60243 14.12297,-8.40732 25.08903,-26.03611 50.84268,-51.440832 76.14771,-77.260938 h 2.12675 c 37.28464,26.916713 74.61911,53.816808 111.98682,80.650448 -5.51626,28.99362 -10.9993,57.98724 -16.33279,87.01409 10.66699,9.91931 22.77951,18.0774 34.11112,27.21579 11.14883,8.34086 21.81583,17.37955 33.47973,25.02257 22.44721,-13.2922 45.04396,-26.35179 67.32502,-39.94307 2.20983,-1.24615 4.43627,-2.62521 6.96179,-3.09044 24.54073,20.3703 47.61932,42.50182 72.16005,62.87213 v 3.60551 c -3.97104,14.72111 -6.29718,29.82438 -9.371,44.74488 -4.15382,21.73275 -8.59009,43.43228 -12.91005,65.1318 -1.77784,8.98885 -4.30336,17.94447 -4.33659,27.18256 0.0498,76.8954 0.0665,153.77418 0,230.66958 -33.1142,5.94826 -66.07887,13.02636 -99.49214,17.13033 -22.01522,2.80798 -43.96397,5.99811 -65.9958,8.59009 -5.76549,0.93045 -12.64421,2.04367 -15.85095,7.57655 -2.34275,4.6855 -1.9606,10.15192 -2.14337,15.25281 0.18277,13.64112 0.13292,27.29886 0.13292,40.93998 -32.36651,5.86519 -64.86595,10.93284 -97.598,14.1562 -0.13293,-15.63495 -0.14954,-31.26991 0,-46.88825 0.0498,-5.71565 -0.34892,-12.22883 -5.03443,-16.21649 -3.2732,-3.62212 -8.35747,-4.30335 -12.97651,-4.33658 -65.39764,0.0831 -130.8119,0.0831 -196.22616,0 -4.61904,0.0332 -9.70331,0.71446 -12.99313,4.33658 -4.66889,3.98766 -5.06765,10.51746 -5.01781,16.21649 0.14954,15.63496 0.11631,31.2533 0.0166,46.88825 -32.74867,-3.22336 -65.24811,-8.29101 -97.61463,-14.1562 -0.38215,-16.96417 0.74769,-33.96158 -0.41538,-50.87591 -0.23261,-7.01163 -6.87871,-11.31499 -13.22574,-12.12913 -40.10923,-5.83196 -80.55076,-9.6867 -120.39414,-17.32971 -16.51556,-2.67506 -32.81513,-6.44672 -49.31407,-9.15501 -0.0665,-70.76437 -0.0166,-141.52874 -0.0332,-212.30973 -0.0997,-10.58392 0.79754,-21.31737 -1.42891,-31.75175 -7.4104,-35.54003 -14.289116,-71.17975 -21.217678,-106.81947 -1.079991,-5.66581 -2.525518,-11.26515 -3.937815,-16.84787 v -3.60551 c 18.559243,-15.28604 36.038493,-31.81822 54.298653,-47.4864 6.19749,-5.18396 11.74699,-11.26515 18.64232,-15.55188 24.69027,14.00666 48.91531,28.96039 73.50588,43.19966 19.02447,-12.99313 36.5868,-27.94686 55.09619,-41.63783 4.17043,-3.33966 9.07193,-6.23072 11.79683,-10.98268 0.0665,-7.31071 -2.1766,-14.38881 -3.35628,-21.53337 -3.98766,-21.71614 -8.19132,-43.39905 -12.27867,-65.09857 37.3677,-26.83364 74.70218,-53.71712 111.98681,-80.650448 M 501.69854,317.09475 c -20.28722,35.10804 -40.54122,70.23268 -60.82845,105.3241 -3.4892,5.5495 -6.67933,11.28176 -8.80608,17.49587 12.72728,1.76121 25.58749,0.63138 38.39785,0.91384 41.32214,-0.19939 82.67751,0.43199 123.99965,-0.31569 -0.68123,-2.89106 -1.24614,-5.86519 -2.64183,-8.50702 -24.34134,-42.08644 -48.71592,-84.17288 -72.92435,-126.34239 -1.77783,-2.37599 -2.97413,-6.59626 -6.74579,-5.53288 -4.25351,5.13411 -7.0781,11.24852 -10.451,16.96417 M 276.17969,560.24239 c -4.91812,22.84598 4.00427,49.231 24.64042,61.40999 14.57158,9.73653 32.98128,9.07192 49.71284,7.82578 18.27678,-1.66152 35.55665,-12.91005 43.66489,-29.49208 5.7655,-12.34513 7.65963,-26.51794 4.70212,-39.87661 -40.90676,-0.0166 -81.81352,-0.26584 -122.72027,0.13292 m 346.24529,-0.0665 c -4.27012,21.94875 3.33967,47.03779 22.51367,59.74846 14.8042,10.71684 33.94497,10.88299 51.42422,9.83623 19.98815,-1.4123 38.84647,-14.72112 45.99102,-33.59605 5.10089,-11.28175 5.5495,-23.90935 3.53905,-35.97202 -41.15598,-0.24923 -82.31197,-0.216 -123.46796,-0.0166 z"
       id="path1"
       style="fill:#ff5555;stroke:none;stroke-width:10;stroke-linecap:butt;stroke-dasharray:none;stroke-opacity:1;paint-order:normal"
       sodipodi:nodetypes="ccccccccccccccccccccccccccccccccccccccccccccccccccccccccccccccccccsccccss" /><path
       fill="#000000"
       opacity="1"
       d="m 116.22463,696.7201 c 31.12037,6.61287 62.58966,11.39806 93.85957,17.27986 16.99741,2.49229 33.89512,5.91503 51.02545,7.47687 0.13292,14.30573 -0.216,28.61147 0.0665,42.90059 0.46523,9.50392 10.28484,14.38881 18.31001,16.69833 34.77573,10.43438 70.49853,18.45955 106.80286,20.93522 11.44791,0.432 22.79613,2.9409 34.27727,2.20983 8.00855,-0.648 13.69097,-8.78947 13.34205,-16.49895 0.0831,-17.19679 -0.0498,-34.39358 0,-51.59037 52.05559,0 104.1278,0 156.1834,0 0.0498,17.19679 -0.0831,34.39358 0,51.59037 -0.19939,5.98149 2.92428,12.02944 8.20793,14.95373 5.15073,2.69167 11.2153,1.5286 16.78141,1.4123 17.54571,-2.04368 35.22434,-2.74152 52.72021,-5.26704 22.92905,-3.57228 45.55902,-8.85593 67.88993,-15.07004 6.57964,-2.06029 13.49158,-3.55566 19.39,-7.29409 4.61904,-2.90767 8.24117,-7.97533 7.82579,-13.64113 0.0665,-13.77404 -0.0831,-27.56471 -0.0166,-41.33875 32.68221,-3.62213 64.96565,-10.21838 97.38201,-15.71803 15.83434,-2.97413 31.76837,-5.49965 47.50301,-9.0387 -2.75813,20.51984 -6.31379,41.10614 -14.25589,60.3466 -3.04059,8.78947 -8.05839,16.74818 -11.09899,25.52104 9.18824,10.88299 21.54999,18.4097 31.63545,28.37885 -6.29718,24.78996 -12.82698,49.49685 -19.07431,74.28681 -18.74201,-1.87753 -37.48402,-3.88797 -56.22603,-5.69904 -3.53904,-0.24923 -7.09471,-0.66461 -10.60053,-0.14953 -7.01164,4.45288 -12.97651,10.40115 -19.37339,15.66818 -4.18704,3.20675 -3.40612,9.0387 -4.13719,13.67436 -1.01353,18.77523 -3.12367,37.45078 -4.25351,56.2094 -25.93641,2.1766 -51.87283,4.20366 -77.85908,5.79873 -7.39379,-13.27559 -13.85713,-27.08287 -22.49706,-39.644 -50.6433,18.69216 -104.29396,28.69455 -158.16061,31.02068 -19.92169,0.19938 -39.82677,0.26585 -59.76507,0 -53.85005,-2.32613 -107.51732,-12.32852 -158.144,-31.02068 -8.63993,12.54452 -15.10327,26.36841 -22.49706,39.644 -25.96964,-1.57845 -51.92267,-3.62213 -77.84247,-5.78211 -1.16306,-18.75862 -3.25659,-37.45079 -4.27012,-56.22602 -0.73107,-4.63566 0.0498,-10.46761 -4.1372,-13.67436 -6.41348,-5.26703 -12.36175,-11.2153 -19.37338,-15.66818 -3.95443,-0.54831 -7.94209,-0.0332 -11.89653,0.26584 -18.31001,1.79445 -36.62002,3.75505 -54.93003,5.58273 -6.24733,-24.78996 -12.79374,-49.51346 -19.07431,-74.28681 10.08546,-9.96915 22.44721,-17.47925 31.61883,-28.37885 -2.45906,-7.62641 -6.91195,-14.42205 -9.65346,-21.94876 -8.77286,-20.28722 -12.8436,-42.11967 -15.6848,-63.91888 z"
       id="path2"
       style="fill:#00c0ff;fill-opacity:1;stroke:none;stroke-width:10;stroke-linecap:butt;stroke-dasharray:none;stroke-opacity:1;paint-order:normal" /><path
       style="fill:#00c0ff;fill-opacity:1;fill-rule:evenodd;stroke:none;stroke-width:10;stroke-linecap:butt;stroke-dasharray:none;stroke-opacity:1;paint-order:normal"
       d="m 434.99912,439.94885 c -1.10479,-0.2128 -1.99699,-0.86114 -1.98265,-1.44076 0.0455,-1.83919 6.82209,-13.9395 40.08859,-71.5822 37.7178,-65.35572 38.40848,-66.49275 40.39648,-66.50309 2.08324,-0.0108 2.40031,0.49499 25.73745,41.05932 11.44083,19.88632 27.89703,48.41012 36.56933,63.38623 14.75224,25.47549 17.87955,31.51071 17.87955,34.50462 0,1.00448 -13.08601,1.18562 -78.34001,1.08435 -43.08701,-0.0669 -79.24394,-0.29568 -80.34874,-0.50847 z"
       id="path3" /><path
       id="path4"
       style="fill:#f9f9f9;fill-rule:evenodd;stroke:none;stroke-width:10;stroke-linecap:butt;stroke-dasharray:none;stroke-opacity:1;paint-order:normal"
       d="m 337.8125,560.20898 c -57.36722,0 -61.14993,0.0959 -61.73828,1.5625 -1.22263,3.04771 -0.58996,20.18006 0.96484,26.11329 5.65496,21.57964 22.25828,37.17568 43.6836,41.0332 7.04597,1.26859 32.21609,0.39647 38.55273,-1.33594 12.70951,-3.47472 26.14792,-13.33923 32.375,-23.76367 6.19951,-10.37825 9.26794,-24.98724 7.91016,-37.66602 l -0.63672,-5.94336 z m 284.62891,0 -0.58985,6.91993 c -1.0203,11.96024 1.91411,25.50991 7.78125,35.93359 1.52009,2.70061 5.40562,7.52126 8.63477,10.71289 8.34393,8.24697 18.42471,13.1857 30.89062,15.13281 2.92857,0.45743 11.55131,0.69938 19.16211,0.53907 11.00231,-0.23174 15.02676,-0.6723 19.64063,-2.1543 18.26611,-5.8672 32.05663,-20.70458 37.00976,-39.81836 1.37082,-5.28987 1.88717,-21.26037 0.81641,-25.25586 L 745.25,560.20898 h -61.4043 z" /></g></svg>
