<?xml version="1.0" encoding="UTF-8" standalone="no"?>
<svg
   width="1024"
   height="414"
   version="1.1"
   id="svg8"
   sodipodi:docname="logo_outlined.svg"
   inkscape:version="1.3.2 (091e20e, 2023-11-25, custom)"
   xmlns:inkscape="http://www.inkscape.org/namespaces/inkscape"
   xmlns:sodipodi="http://sodipodi.sourceforge.net/DTD/sodipodi-0.dtd"
   xmlns="http://www.w3.org/2000/svg"
   xmlns:svg="http://www.w3.org/2000/svg">
  <defs
     id="defs8">
    <rect
       x="421.46805"
       y="82.163447"
       width="751.64338"
       height="132.37445"
       id="rect8" />
  </defs>
  <sodipodi:namedview
     id="namedview8"
     pagecolor="#505050"
     bordercolor="#eeeeee"
     borderopacity="1"
     inkscape:showpageshadow="0"
     inkscape:pageopacity="0"
     inkscape:pagecheckerboard="0"
     inkscape:deskcolor="#505050"
     inkscape:zoom="1.3144531"
     inkscape:cx="531.7801"
     inkscape:cy="180.68351"
     inkscape:window-width="2560"
     inkscape:window-height="1361"
     inkscape:window-x="-9"
     inkscape:window-y="-9"
     inkscape:window-maximized="1"
     inkscape:current-layer="svg8" />
  <path
     id="path3"
     style="fill:#f9f9f9;stroke:#ffffff;stroke-width:5;stroke-dasharray:none;stroke-opacity:1"
     d="m 169.34766,34.580078 c -13.94357,10.072424 -27.90623,20.125013 -41.88086,30.160156 1.52858,8.115104 3.10051,16.224384 4.59179,24.345704 0.44117,2.671895 1.28076,5.318703 1.25586,8.052734 -1.01905,1.77712 -2.85247,2.858473 -4.41211,4.107418 -6.92207,5.12011 -13.48882,10.71314 -20.60351,15.57227 -9.196299,-5.32516 -18.256662,-10.9181 -27.490236,-16.15625 -2.57869,1.60313 -4.654943,3.87773 -6.972656,5.81641 -6.828866,5.85952 -13.365926,12.04119 -20.306641,17.75781 v 1.34961 c 0.528165,2.08781 1.068765,4.1819 1.472656,6.30078 2.591118,13.32841 5.164234,26.65614 7.935547,39.94726 0.83264,3.90222 0.497866,7.91687 0.535156,11.875 0.0062,26.47041 -0.01315,52.93426 0.01172,79.39844 6.170212,1.01284 12.266933,2.42342 18.443359,3.42383 14.900477,2.85831 30.023545,4.29945 45.023435,6.48047 2.37364,0.30447 4.86027,1.91492 4.94727,4.53711 0.43496,6.32555 0.0114,12.6812 0.15429,19.02539 12.10431,2.19344 24.25864,4.08946 36.50586,5.29492 0.0375,-5.8471 0.05,-11.68805 -0.006,-17.53516 -0.0186,-2.13129 0.1309,-4.57316 1.87696,-6.06445 1.23032,-1.35459 3.13195,-1.61065 4.85937,-1.62305 24.46338,0.0311 48.92565,0.0311 73.38282,0 1.7274,0.0124 3.62941,0.26846 4.85351,1.62305 1.75227,1.49129 1.90141,3.92694 1.88281,6.06445 -0.0559,5.84089 -0.0497,11.68806 0,17.53516 12.24101,-1.20546 24.39571,-3.10148 36.5,-5.29492 0,-5.10146 0.0176,-10.2091 -0.0508,-15.31055 0.0684,-1.90762 -0.0754,-3.95085 0.80078,-5.70312 1.19924,-2.06917 3.77353,-2.48602 5.92969,-2.83399 8.23938,-0.96934 16.44653,-2.16277 24.67969,-3.21289 12.49577,-1.53479 24.82505,-4.18174 37.20898,-6.40625 0.0249,-28.75705 0.0186,-57.50857 0,-86.26562 0.0124,-3.45483 0.95623,-6.80245 1.6211,-10.16407 1.61555,-8.1151 3.27469,-16.23184 4.82812,-24.35937 1.14954,-5.57992 2.01883,-11.22708 3.50391,-16.73242 v -1.34961 c -9.17765,-7.61801 -17.80868,-15.89371 -26.98633,-23.51172 -0.94449,0.17399 -1.77709,0.69021 -2.60352,1.15625 -8.33258,5.08281 -16.78301,9.96653 -25.17773,14.9375 -4.36202,-2.85831 -8.35014,-6.23814 -12.51953,-9.35742 -4.23776,-3.41754 -8.76862,-6.47011 -12.75781,-10.17969 1.99459,-10.855351 4.04447,-21.698091 6.10742,-32.541016 C 282.51755,54.705091 268.55685,44.646289 254.61328,34.580078 h -0.79687 c -9.46347,9.656105 -19.09387,19.155693 -28.47657,28.892578 -1.47264,1.422939 -2.9946,3.355798 -5.28125,3.144532 -5.38728,0 -10.77482,0.0062 -16.16211,0 -2.28664,0.205051 -3.80274,-1.721593 -5.27539,-3.144532 -9.3827,-9.736885 -19.01503,-19.236473 -28.47851,-28.892578 z M 426.97852,180.24219 c -2.12837,0 -4.1199,0.40753 -5.97657,1.22265 -1.81137,0.76984 -3.41845,1.85595 -4.82226,3.25977 -1.35854,1.35853 -2.4466,2.96561 -3.26172,4.82227 -0.76983,1.85666 -1.1543,3.85015 -1.1543,5.97851 v 19.90234 c 0,2.12837 0.38447,4.11991 1.1543,5.97657 0.81512,1.81138 1.90318,3.4204 3.26172,4.82422 1.40381,1.40382 3.01089,2.513 4.82226,3.32812 1.85667,0.76983 3.8482,1.1543 5.97657,1.1543 h 33.01367 c 2.08308,0 4.05155,-0.38447 5.9082,-1.1543 1.85667,-0.81512 3.46569,-1.9243 4.82422,-3.32812 1.40382,-1.40382 2.48993,-3.01284 3.25977,-4.82422 0.81511,-1.85666 1.22265,-3.8482 1.22265,-5.97657 v -12.22656 h -44.49219 c -0.63398,0 -1.17606,0.22684 -1.6289,0.67969 -0.40756,0.40756 -0.61133,0.92657 -0.61133,1.56055 0,0.63398 0.20377,1.17801 0.61133,1.63086 0.45284,0.45284 0.99492,0.67968 1.6289,0.67968 h 40.00977 v 7.67578 c 0,1.49439 -0.29412,2.8977 -0.88281,4.21094 -0.54342,1.31325 -1.31428,2.46859 -2.31055,3.46485 -0.95097,0.95097 -2.08325,1.7199 -3.39648,2.30859 -1.26797,0.54341 -2.6482,0.81641 -4.14258,0.81641 h -33.01367 c -1.49438,0 -2.89769,-0.273 -4.21094,-0.81641 -1.26796,-0.58869 -2.40023,-1.35762 -3.39649,-2.30859 -0.95097,-0.99626 -1.71989,-2.1516 -2.30859,-3.46485 -0.54341,-1.31324 -0.81641,-2.71655 -0.81641,-4.21094 v -19.90234 c 0,-1.49438 0.273,-2.8977 0.81641,-4.21094 0.5887,-1.31325 1.35762,-2.44551 2.30859,-3.39648 0.99626,-0.99626 2.12853,-1.76714 3.39649,-2.31055 1.31325,-0.58869 2.71656,-0.88281 4.21094,-0.88281 h 33.01367 c 1.31324,0 2.55893,0.22684 3.73633,0.67969 1.22267,0.45284 2.28572,1.08722 3.1914,1.90234 0.95097,0.81512 1.74297,1.76474 2.37696,2.85156 0.63398,1.08683 1.06459,2.26525 1.29101,3.53321 0.0906,0.49813 0.34049,0.92873 0.74805,1.29101 0.40756,0.36227 0.88237,0.54297 1.42578,0.54297 0.67926,0 1.24637,-0.27299 1.69922,-0.81641 0.45284,-0.54341 0.63353,-1.15471 0.54297,-1.83398 -0.317,-1.76608 -0.9283,-3.41736 -1.83399,-4.95703 -0.90568,-1.53967 -2.01488,-2.87571 -3.32812,-4.00781 -1.31326,-1.13212 -2.83193,-2.01642 -4.55274,-2.65039 -1.67552,-0.67927 -3.44021,-1.01758 -5.29687,-1.01758 z m 66.1621,0 c -1.90195,0 -3.69166,0.33831 -5.36718,1.01758 -1.67553,0.63397 -3.19225,1.51827 -4.55078,2.65039 -1.31324,1.1321 -2.42244,2.46814 -3.32813,4.00781 -0.8604,1.53967 -1.44862,3.19095 -1.76562,4.95703 -0.13586,0.67927 0.0217,1.29057 0.47461,1.83398 0.49812,0.54342 1.08635,0.81641 1.76562,0.81641 0.54341,0 1.02018,-0.1807 1.42774,-0.54297 0.40755,-0.36228 0.65552,-0.79288 0.74609,-1.29101 0.22642,-1.26796 0.65704,-2.44638 1.29101,-3.53321 0.63399,-1.08682 1.40487,-2.03644 2.31055,-2.85156 0.95097,-0.81512 2.01401,-1.4495 3.19141,-1.90234 1.22268,-0.45285 2.49144,-0.67969 3.80468,-0.67969 h 33.01172 c 1.49438,0 2.87657,0.29412 4.14454,0.88281 1.31324,0.54341 2.44355,1.31429 3.39453,2.31055 0.99625,0.95097 1.76713,2.08323 2.31054,3.39648 0.58871,1.31324 0.88282,2.71656 0.88282,4.21094 v 19.90234 c 0,1.49439 -0.29411,2.8977 -0.88282,4.21094 -0.54341,1.31325 -1.31429,2.46859 -2.31054,3.46485 -0.95098,0.95097 -2.08129,1.7199 -3.39453,2.30859 -1.26797,0.54341 -2.65016,0.81641 -4.14454,0.81641 h -33.01172 c -1.49439,0 -2.89965,-0.273 -4.21289,-0.81641 -1.26796,-0.58869 -2.39827,-1.35762 -3.39453,-2.30859 -0.95097,-0.99626 -1.72184,-2.1516 -2.31054,-3.46485 -0.54342,-1.31324 -0.81446,-2.71655 -0.81446,-4.21094 v -7.47265 c 0,-0.63399 -0.22684,-1.15494 -0.67968,-1.5625 -0.40756,-0.45284 -0.92852,-0.67774 -1.5625,-0.67774 -0.63398,0 -1.17801,0.2249 -1.63086,0.67774 -0.40756,0.40756 -0.61133,0.92851 -0.61133,1.5625 v 7.47265 c 0,2.12837 0.38641,4.11991 1.15625,5.97657 0.81512,1.81138 1.90123,3.4204 3.25976,4.82422 1.40382,1.40382 3.01089,2.513 4.82227,3.32812 1.85666,0.76983 3.85015,1.1543 5.97851,1.1543 h 33.01172 c 2.08308,0 4.0535,-0.38447 5.91016,-1.1543 1.85666,-0.81512 3.46373,-1.9243 4.82227,-3.32812 1.40381,-1.40382 2.48993,-3.01284 3.25976,-4.82422 0.81512,-1.85666 1.22266,-3.8482 1.22266,-5.97657 v -19.90234 c 0,-2.12836 -0.40754,-4.12185 -1.22266,-5.97851 -0.76983,-1.85666 -1.85595,-3.46374 -3.25976,-4.82227 -1.35854,-1.40382 -2.96561,-2.48993 -4.82227,-3.25977 -1.85666,-0.81512 -3.82708,-1.22265 -5.91016,-1.22265 z m 58.14454,0 c -2.0378,0 -3.7583,0.70165 -5.16211,2.10547 -1.35854,1.35853 -2.03711,3.05595 -2.03711,5.09375 v 41.02734 c 0,0.63399 0.20377,1.17802 0.61133,1.63086 0.45284,0.40756 0.99492,0.61133 1.6289,0.61133 0.63398,0 1.15494,-0.20377 1.5625,-0.61133 0.45285,-0.45284 0.67969,-0.99687 0.67969,-1.63086 v -40.48437 c 0,-0.9057 0.31719,-1.67462 0.95117,-2.3086 0.63397,-0.63398 1.4029,-0.95117 2.30859,-0.95117 h 37.15626 c 1.63023,0 3.17004,0.31719 4.61914,0.95117 1.44909,0.5887 2.71786,1.42685 3.80468,2.51367 1.08683,1.08683 1.92302,2.35364 2.51172,3.80274 0.63398,1.4491 0.95117,2.9889 0.95117,4.61914 v 17.72851 c 0,1.63024 -0.31719,3.17005 -0.95117,4.61914 -0.5887,1.44911 -1.42489,2.71787 -2.51172,3.80469 -1.08682,1.04154 -2.35559,1.87969 -3.80468,2.51367 -1.4491,0.63398 -2.98891,0.95118 -4.61914,0.95118 h -31.17774 c -0.63399,0 -1.17802,0.22488 -1.63086,0.67773 -0.40757,0.40757 -0.61133,0.92853 -0.61133,1.5625 0,0.63399 0.20376,1.17802 0.61133,1.63086 0.45284,0.40756 0.99687,0.61133 1.63086,0.61133 h 31.17774 c 2.26421,0 4.39225,-0.43062 6.38476,-1.29102 1.99252,-0.8604 3.71301,-2.01378 5.16211,-3.46289 1.49439,-1.49438 2.6728,-3.23796 3.5332,-5.23047 0.86042,-1.99252 1.29102,-4.1225 1.29102,-6.38672 v -17.72851 c 0,-2.26423 -0.4306,-4.39226 -1.29102,-6.38477 -0.8604,-1.99252 -2.03881,-3.71301 -3.5332,-5.16211 -1.4491,-1.49438 -3.16959,-2.6728 -5.16211,-3.5332 -1.99251,-0.86041 -4.12055,-1.28906 -6.38476,-1.28906 z m 72.00195,0 c -1.90195,0 -3.68972,0.33831 -5.36523,1.01758 -1.67554,0.63397 -3.19226,1.51827 -4.55079,2.65039 -1.31325,1.1321 -2.42439,2.46814 -3.33007,4.00781 -0.86041,1.53967 -1.44864,3.19095 -1.76563,4.95703 -0.13585,0.67927 0.0237,1.29057 0.47656,1.83398 0.49814,0.54342 1.08636,0.81641 1.76563,0.81641 0.54341,0 1.01822,-0.1807 1.42578,-0.54297 0.40756,-0.36228 0.65748,-0.79288 0.74805,-1.29101 0.22642,-1.26796 0.65703,-2.44638 1.29101,-3.53321 0.63398,-1.08682 1.40291,-2.03644 2.3086,-2.85156 0.95097,-0.81512 2.01597,-1.4495 3.19336,-1.90234 1.22267,-0.45285 2.48948,-0.67969 3.80273,-0.67969 h 33.01367 c 1.49439,0 2.87461,0.29412 4.14258,0.88281 1.31324,0.54341 2.4455,1.31429 3.39648,2.31055 0.99626,0.95097 1.76518,2.08323 2.3086,3.39648 0.58869,1.31324 0.88476,2.71656 0.88476,4.21094 v 19.90234 c 0,1.49439 -0.29607,2.8977 -0.88476,4.21094 -0.54342,1.31325 -1.31234,2.46859 -2.3086,3.46485 -0.95098,0.95097 -2.08324,1.7199 -3.39648,2.30859 -1.26797,0.54341 -2.64819,0.81641 -4.14258,0.81641 h -33.01367 c -1.49439,0 -2.89769,-0.273 -4.21094,-0.81641 -1.26796,-0.58869 -2.40022,-1.35762 -3.39648,-2.30859 -0.95097,-0.99626 -1.7199,-2.1516 -2.3086,-3.46485 -0.54341,-1.31324 -0.8164,-2.71655 -0.8164,-4.21094 v -7.47265 c 0,-0.63399 -0.22684,-1.15494 -0.67969,-1.5625 -0.40756,-0.45284 -0.92657,-0.67774 -1.56055,-0.67774 -0.63398,0 -1.17802,0.2249 -1.63086,0.67774 -0.40756,0.40756 -0.61132,0.92851 -0.61132,1.5625 v 7.47265 c 0,2.12837 0.38446,4.11991 1.15429,5.97657 0.81512,1.81138 1.90124,3.4204 3.25977,4.82422 1.40381,1.40382 3.01283,2.513 4.82422,3.32812 1.85665,0.76983 3.84819,1.1543 5.97656,1.1543 h 33.01367 c 2.08309,0 4.05155,-0.38447 5.9082,-1.1543 1.85666,-0.81512 3.46569,-1.9243 4.82422,-3.32812 1.40382,-1.40382 2.48994,-3.01284 3.25977,-4.82422 0.81512,-1.85666 1.22265,-3.8482 1.22265,-5.97657 v -19.90234 c 0,-2.12836 -0.40753,-4.12185 -1.22265,-5.97851 -0.76983,-1.85666 -1.85595,-3.46374 -3.25977,-4.82227 -1.35853,-1.40382 -2.96756,-2.48993 -4.82422,-3.25977 -1.85665,-0.81512 -3.82511,-1.22265 -5.9082,-1.22265 z m 49.79101,0 c -0.63397,0 -1.17801,0.22489 -1.63085,0.67773 -0.40756,0.40756 -0.61133,0.92852 -0.61133,1.5625 0,0.63398 0.20377,1.17802 0.61133,1.63086 0.45284,0.40756 0.99688,0.61133 1.63085,0.61133 h 17.93165 c 0.63398,0 1.17802,-0.20377 1.63085,-0.61133 0.45284,-0.45284 0.67969,-0.99688 0.67969,-1.63086 0,-0.63398 -0.22685,-1.15494 -0.67969,-1.5625 -0.45283,-0.45284 -0.99687,-0.67773 -1.63085,-0.67773 z m 31.58594,0 c -1.67552,0 -3.1019,0.58823 -4.27929,1.76562 -1.13212,1.13211 -1.69922,2.53542 -1.69922,4.21094 v 42.25 c 0,0.63399 0.20377,1.17802 0.61133,1.63086 0.45284,0.40756 0.99688,0.61133 1.63085,0.61133 0.63399,0 1.15494,-0.20377 1.5625,-0.61133 0.45284,-0.45284 0.67969,-0.99687 0.67969,-1.63086 v -42.25 c 0,-0.40756 0.13455,-0.74783 0.40625,-1.01953 0.31699,-0.31699 0.68033,-0.47461 1.08789,-0.47461 h 24.11328 c 0.63398,0 1.15494,-0.20377 1.5625,-0.61133 0.45285,-0.45284 0.67969,-0.99688 0.67969,-1.63086 0,-0.63398 -0.22684,-1.15494 -0.67969,-1.5625 -0.40756,-0.45284 -0.92852,-0.67773 -1.5625,-0.67773 z m 44.35547,0 c -2.12836,0 -4.1199,0.40753 -5.97656,1.22265 -1.81137,0.76984 -3.4204,1.85595 -4.82422,3.25977 -1.40382,1.35853 -2.51301,2.96561 -3.32813,4.82227 -0.76983,1.85666 -1.15429,3.85015 -1.15429,5.97851 v 19.90234 c 0,2.12837 0.38446,4.11991 1.15429,5.97657 0.81512,1.81138 1.92431,3.4204 3.32813,4.82422 1.40382,1.40382 3.01285,2.513 4.82422,3.32812 1.85666,0.76983 3.8482,1.1543 5.97656,1.1543 h 32.19727 c 1.4491,0 2.87548,-0.1807 4.27929,-0.54297 1.4491,-0.36227 2.78514,-0.88324 4.00782,-1.5625 1.26796,-0.72455 2.40023,-1.58577 3.39648,-2.58203 1.04155,-1.04154 1.90277,-2.21801 2.58203,-3.53125 0.72455,-1.26797 1.22244,-2.7405 1.49414,-4.41602 0.13586,-0.67926 -0.0237,-1.29057 -0.47656,-1.83398 -0.45285,-0.54342 -1.04107,-0.81446 -1.76562,-0.81446 -0.49813,0 -0.97294,0.1807 -1.42579,0.54297 -0.40756,0.317 -0.65748,0.74761 -0.74804,1.29102 -0.22642,1.31324 -0.67816,2.55893 -1.35743,3.73633 -1.04154,1.72081 -2.44679,3.03376 -4.21289,3.93945 -1.7208,0.8604 -3.55472,1.29102 -5.50195,1.29102 h -32.46875 c -1.49438,0 -2.89769,-0.273 -4.21094,-0.81641 -1.31324,-0.58869 -2.46858,-1.35762 -3.46484,-2.30859 -0.95097,-0.99626 -1.7199,-2.1516 -2.30859,-3.46485 -0.54342,-1.31324 -0.81641,-2.71655 -0.81641,-4.21094 v -19.90234 c 0,-1.49438 0.27299,-2.8977 0.81641,-4.21094 0.58869,-1.31325 1.35762,-2.44551 2.30859,-3.39648 0.99626,-0.99626 2.1516,-1.76714 3.46484,-2.31055 1.31325,-0.58869 2.71656,-0.88281 4.21094,-0.88281 h 32.94531 c 1.31326,0 2.55894,0.22684 3.73633,0.67969 1.22268,0.45284 2.3088,1.08722 3.25977,1.90234 0.95097,0.81512 1.7199,1.76474 2.30859,2.85156 0.63399,1.08683 1.0646,2.26525 1.29102,3.53321 0.0906,0.49813 0.34048,0.92873 0.74804,1.29101 0.45285,0.36227 0.92766,0.54297 1.42579,0.54297 h 0.0684 c 0.67927,0 1.24442,-0.27299 1.69727,-0.81641 0.45285,-0.54341 0.61242,-1.15471 0.47656,-1.83398 -0.31699,-1.76608 -0.9283,-3.41736 -1.83398,-4.95703 -0.86041,-1.53967 -1.96959,-2.87571 -3.32813,-4.00781 -1.31324,-1.13212 -2.80885,-2.01642 -4.48437,-2.65039 -1.67552,-0.67927 -3.46329,-1.01758 -5.36524,-1.01758 z m 65.95703,0 c -1.90194,0 -3.68971,0.33831 -5.36523,1.01758 -1.67553,0.63397 -3.19421,1.51827 -4.55274,2.65039 -1.31325,1.1321 -2.42243,2.46814 -3.32812,4.00781 -0.8604,1.53967 -1.44864,3.19095 -1.76563,4.95703 -0.13585,0.67927 0.0218,1.29057 0.47461,1.83398 0.49814,0.54342 1.08832,0.81641 1.76758,0.81641 0.54341,0 1.01822,-0.1807 1.42578,-0.54297 0.40756,-0.36228 0.65749,-0.79288 0.74805,-1.29101 0.22643,-1.26796 0.65508,-2.44638 1.28906,-3.53321 0.63398,-1.08682 1.40486,-2.03644 2.31055,-2.85156 0.95097,-0.81512 2.01401,-1.4495 3.19141,-1.90234 1.22267,-0.45285 2.49143,-0.67969 3.80468,-0.67969 h 33.01172 c 1.49439,0 2.87657,0.29412 4.14453,0.88281 1.31325,0.54341 2.44551,1.31429 3.39649,2.31055 0.99626,0.95097 1.76518,2.08323 2.30859,3.39648 0.58869,1.31324 0.88281,2.71656 0.88281,4.21094 v 19.90234 c 0,1.49439 -0.29412,2.8977 -0.88281,4.21094 -0.54341,1.31325 -1.31233,2.46859 -2.30859,3.46485 -0.95098,0.95097 -2.08324,1.7199 -3.39649,2.30859 -1.26796,0.54341 -2.65014,0.81641 -4.14453,0.81641 h -33.01172 c -1.49438,0 -2.89768,-0.273 -4.21094,-0.81641 -1.26795,-0.58869 -2.40022,-1.35762 -3.39648,-2.30859 -0.95097,-0.99626 -1.72185,-2.1516 -2.31055,-3.46485 -0.54341,-1.31324 -0.81445,-2.71655 -0.81445,-4.21094 v -7.47265 c 0,-0.63399 -0.22683,-1.15494 -0.67969,-1.5625 -0.40756,-0.45284 -0.92852,-0.67774 -1.5625,-0.67774 -0.63398,0 -1.17606,0.2249 -1.6289,0.67774 -0.40756,0.40756 -0.61133,0.92851 -0.61133,1.5625 v 7.47265 c 0,2.12837 0.38447,4.11991 1.1543,5.97657 0.81511,1.81138 1.90123,3.4204 3.25976,4.82422 1.40383,1.40382 3.01285,2.513 4.82422,3.32812 1.85666,0.76983 3.84819,1.1543 5.97656,1.1543 h 33.01172 c 2.08309,0 4.0535,-0.38447 5.91016,-1.1543 1.85666,-0.81512 3.46373,-1.9243 4.82226,-3.32812 1.40382,-1.40382 2.49189,-3.01284 3.26172,-4.82422 0.81512,-1.85666 1.22266,-3.8482 1.22266,-5.97657 v -19.90234 c 0,-2.12836 -0.40754,-4.12185 -1.22266,-5.97851 -0.76983,-1.85666 -1.8579,-3.46374 -3.26172,-4.82227 -1.35853,-1.40382 -2.9656,-2.48993 -4.82226,-3.25977 -1.85666,-0.81512 -3.82707,-1.22265 -5.91016,-1.22265 z m 58.14453,0 c -2.03781,0 -3.75829,0.70165 -5.16211,2.10547 -1.35853,1.35853 -2.0371,3.05595 -2.0371,5.09375 v 41.02734 c 0,0.63399 0.20376,1.17802 0.61132,1.63086 0.45285,0.40756 0.99688,0.61133 1.63086,0.61133 0.63399,0 1.15494,-0.20377 1.5625,-0.61133 0.45284,-0.45284 0.67774,-0.99687 0.67774,-1.63086 v -40.48437 c 0,-0.9057 0.31718,-1.67462 0.95117,-2.3086 0.634,-0.63398 1.40489,-0.95117 2.31055,-0.95117 h 33.96289 c 1.6755,0 3.10188,0.58823 4.27929,1.76562 1.22268,1.1774 1.83399,2.62685 1.83399,4.34766 v 8.83008 c 0,1.72081 -0.61131,3.17026 -1.83399,4.34765 -1.17741,1.1774 -2.60379,1.76563 -4.27929,1.76563 h -27.91797 c -0.634,0 -1.17804,0.22684 -1.63086,0.67969 -0.40756,0.40756 -0.61133,0.92852 -0.61133,1.5625 0,0.63398 0.20377,1.17802 0.61133,1.63086 0.45282,0.40756 0.99686,0.61133 1.63086,0.61132 h 17.45703 l 20.10547,19.69727 c 0.36229,0.40757 0.83905,0.63442 1.42773,0.67969 0.58868,0.0906 1.10962,-0.044 1.5625,-0.40625 0.54341,-0.36228 0.86064,-0.86212 0.95117,-1.4961 0.0906,-0.67926 -0.0921,-1.26749 -0.54492,-1.76562 l -17.11719,-16.70899 h 4.07618 c 1.44906,10e-6 2.80817,-0.27299 4.07617,-0.8164 1.31321,-0.58869 2.44551,-1.35762 3.39648,-2.3086 0.95097,-0.95097 1.69682,-2.06015 2.24024,-3.32812 0.58873,-1.31325 0.88281,-2.69543 0.88281,-4.14453 v -8.83008 c 0,-1.4491 -0.29408,-2.80821 -0.88281,-4.07617 -0.54342,-1.31325 -1.28927,-2.44551 -2.24024,-3.39649 -0.95097,-0.95097 -2.08327,-1.69682 -3.39648,-2.24023 -1.268,-0.5887 -2.62711,-0.88281 -4.07617,-0.88281 z m 53.11914,0 c -0.63399,0 -1.17608,0.22489 -1.6289,0.67773 -0.40756,0.40756 -0.61133,0.92852 -0.61133,1.5625 0,0.63398 0.20377,1.17802 0.61133,1.63086 0.45282,0.40756 0.99491,0.61133 1.6289,0.61133 h 45.24024 c 0.63394,0 1.15494,-0.20377 1.5625,-0.61133 0.45288,-0.45284 0.67773,-0.99688 0.67773,-1.63086 0,-0.63398 -0.22485,-1.15494 -0.67773,-1.5625 -0.40756,-0.45284 -0.92856,-0.67773 -1.5625,-0.67773 z m 5.23047,16.98047 c -1.04156,0 -2.01421,0.20376 -2.91992,0.61132 -0.90565,0.36228 -1.69964,0.88324 -2.3789,1.5625 -0.67927,0.67927 -1.22135,1.47127 -1.62891,2.37696 C 924.18068,202.67912 924,203.65377 924,204.69531 v 18.54297 c 0,1.04154 0.18068,2.01618 0.54297,2.92188 0.40756,0.90569 0.94964,1.69768 1.62891,2.37695 0.67926,0.67927 1.47325,1.22331 2.3789,1.63086 0.90571,0.36227 1.87836,0.54297 2.91992,0.54297 h 41.91016 c 0.634,0 1.15494,-0.20377 1.5625,-0.61133 0.45283,-0.45284 0.67969,-0.99687 0.67969,-1.63086 0,-0.63397 -0.22686,-1.15493 -0.67969,-1.5625 -0.40756,-0.45285 -0.9285,-0.67773 -1.5625,-0.67773 H 931.4707 c -0.81512,0 -1.51673,-0.29412 -2.10547,-0.88282 -0.58868,-0.5887 -0.88281,-1.2923 -0.88281,-2.10742 v -18.54297 c 0,-0.81512 0.29413,-1.51677 0.88281,-2.10547 0.58874,-0.5887 1.29035,-0.88281 2.10547,-0.88281 h 35.9336 c 0.63394,0 1.15494,-0.20377 1.5625,-0.61133 0.45288,-0.45284 0.67968,-0.99687 0.67968,-1.63086 0,-0.63398 -0.2268,-1.15494 -0.67968,-1.5625 -0.40756,-0.45284 -0.92856,-0.67968 -1.5625,-0.67968 z M 63.970703,275.22461 c 1.062542,8.15239 2.584394,16.31735 5.865235,23.9043 1.025259,2.8148 2.689744,5.35493 3.609374,8.20703 -3.429967,4.07618 -8.052496,6.88506 -11.824218,10.61328 2.348783,9.26465 4.79646,18.5104 7.132812,27.78125 6.847509,-0.68351 13.695461,-1.41681 20.542969,-2.08789 1.478867,-0.1118 2.970355,-0.30271 4.449219,-0.0977 2.622182,1.66528 4.845652,3.88963 7.244136,5.85938 1.56582,1.19925 1.27542,3.37965 1.54883,5.11328 0.37903,7.02148 1.16075,14.01207 1.59571,21.02734 9.69339,0.80778 19.3993,1.5718 29.11132,2.16211 2.76511,-4.96475 5.18293,-10.13482 8.41407,-14.82617 18.93317,6.99042 39.00393,10.73164 59.14257,11.60156 7.45646,0.0994 14.89937,0.0746 22.34961,0 20.14484,-0.86992 40.20905,-4.61114 59.14844,-11.60156 3.23113,4.69756 5.64896,9.86142 8.41406,14.82617 9.71824,-0.59652 19.41759,-1.35398 29.11719,-2.16797 0.42253,-7.01528 1.21082,-14 1.58985,-21.02148 0.2734,-1.73363 -0.017,-3.91403 1.54882,-5.11328 2.39228,-1.96975 4.62196,-4.1941 7.24414,-5.85938 1.31109,-0.19265 2.64133,-0.0385 3.96485,0.0547 7.00906,0.67729 14.01828,1.42871 21.02734,2.13086 2.33635,-9.27085 4.77783,-18.51039 7.13281,-27.78125 -3.77171,-3.72822 -8.3939,-6.54331 -11.83007,-10.61328 1.1371,-3.28084 3.01328,-6.25592 4.15039,-9.54297 2.97015,-7.19547 4.2986,-14.89443 5.33007,-22.56836 -5.88438,1.32352 -11.84199,2.26861 -17.76367,3.38086 -12.12295,2.05674 -24.19755,4.52236 -36.41992,5.87695 -0.0251,5.15117 0.0327,10.30978 0.008,15.46094 0.15534,2.11888 -1.20032,4.01221 -2.92773,5.09961 -2.20587,1.39808 -4.79133,1.95802 -7.25195,2.72851 -8.35124,2.32393 -16.81375,4.30077 -25.38868,5.63672 -6.54304,0.94448 -13.15511,1.20446 -19.71679,1.96875 -2.08159,0.0435 -4.34915,0.47928 -6.27539,-0.52734 -1.97596,-1.09361 -3.14296,-3.35682 -3.06836,-5.59375 -0.0311,-6.43119 0.0186,-12.86179 0,-19.29297 h -58.41016 c -0.0186,6.43118 0.0311,12.86178 0,19.29297 0.13049,2.88316 -1.99327,5.92953 -4.98828,6.17187 -4.29368,0.2734 -8.53907,-0.66461 -12.82031,-0.82617 -13.57696,-0.92584 -26.93611,-3.92787 -39.94141,-7.83008 -3.00123,-0.8637 -6.67367,-2.6899 -6.84766,-6.24414 -0.1057,-5.34379 0.0243,-10.69491 -0.0254,-16.04492 -6.40633,-0.58409 -12.7254,-1.86287 -19.082028,-2.79492 -11.693575,-2.19954 -23.461941,-3.99004 -35.099609,-6.46289 z"
     sodipodi:nodetypes="cccccccccccccccccccccccccccccccccccccccccccccccccccscscsscccsscccscssscscscscsscccsscscssccscssscsscssscccccsscsccsscccsscscsscccsscsssscccsscccsscccsssssscssssssscscssccssssscsssssssscsssscccccsscsccsscccsscscsscccsscsssscccsscccsscccssssscsscscsssssscssssssssscssscccsscscssccsccssccccsscccsscscsscscccsssccccssscccccsscsccsscccsscscsscccsscsssscccsscccsscccsssssscssssssscsscsssscccccccccscscsscscssssscsssscssscscsscscsssscsssssssssscsscccccccccccccccccccccccccccccccccccccccccccccc" />
  <path
     fill="#000000"
     opacity="1"
     d="m 169.34791,34.579492 h 0.79536 c 9.46349,9.656115 19.09475,19.156887 28.47746,28.893782 1.47265,1.42294 2.9888,3.349193 5.27545,3.144141 5.38729,0.0062 10.77458,0 16.16187,0 2.28665,0.211267 3.80901,-1.721201 5.28166,-3.144141 9.38271,-9.736895 19.01398,-19.237667 28.47746,-28.893782 h 0.79536 c 13.94358,10.066221 27.9058,20.126227 41.88045,30.16138 -2.06295,10.842935 -4.11348,21.68587 -6.10808,32.541232 3.9892,3.709586 8.519,6.760526 12.75676,10.178066 4.1694,3.11929 8.15861,6.49955 12.52063,9.35786 8.39473,-4.97097 16.84539,-9.85495 25.17798,-14.93777 0.82643,-0.46604 1.65906,-0.98177 2.60355,-1.15576 9.17766,7.61802 17.80851,15.89469 26.98617,23.51271 v 1.34837 c -1.48508,5.50535 -2.355,11.15362 -3.50454,16.73354 -1.55343,8.12754 -3.21249,16.24266 -4.82805,24.35777 -0.66487,3.36162 -1.60936,6.71081 -1.62178,10.16564 0.0186,28.75708 0.0249,57.50794 0,86.26502 -12.38394,2.22451 -24.71196,4.87156 -37.20774,6.40635 -8.23317,1.05012 -16.44149,2.24315 -24.68088,3.21249 -2.15616,0.34797 -4.72864,0.76428 -5.92788,2.83345 -0.87614,1.75227 -0.73322,3.79658 -0.80157,5.7042 0.0684,5.10145 0.0497,10.20913 0.0497,15.31059 -12.10431,2.19344 -24.25834,4.08863 -36.49936,5.29409 -0.0497,-5.84711 -0.0559,-11.69422 0,-17.53511 0.0186,-2.13752 -0.13049,-4.5733 -1.88276,-6.06459 -1.2241,-1.35459 -3.1255,-1.60935 -4.85291,-1.62178 -24.45719,0.0311 -48.92059,0.0311 -73.38399,0 -1.72742,0.0124 -3.62881,0.26719 -4.85913,1.62178 -1.74606,1.49129 -1.89518,3.93329 -1.87654,6.06459 0.0559,5.84711 0.0435,11.688 0.006,17.53511 -12.24724,-1.20546 -24.40127,-3.10065 -36.50559,-5.29409 -0.14292,-6.3442 0.27962,-12.70084 -0.15534,-19.0264 -0.087,-2.62219 -2.57248,-4.23154 -4.94612,-4.53601 -14.99991,-2.18102 -30.124099,-3.6226 -45.024591,-6.48091 -6.176433,-1.00041 -12.27209,-2.41092 -18.442308,-3.42376 -0.02487,-26.46421 -0.0062,-52.92843 -0.01242,-79.39886 -0.03729,-3.95814 0.298262,-7.9722 -0.534379,-11.87442 -2.771316,-13.29114 -5.343794,-26.61956 -7.934914,-39.94798 -0.403892,-2.11888 -0.944485,-4.2129 -1.472651,-6.30071 v -1.34837 c 6.940722,-5.71662 13.477553,-11.89927 20.306425,-17.7588 2.317716,-1.93868 4.393099,-4.21291 6.971791,-5.81604 9.233583,5.23816 18.293181,10.8305 27.489487,16.15566 7.1147,-4.85913 13.6826,-10.45147 20.60468,-15.57158 1.55964,-1.24895 3.39269,-2.330139 4.41174,-4.107261 0.0249,-2.734034 -0.814,-5.381078 -1.25517,-8.052976 -1.49129,-8.121328 -3.06336,-16.230229 -4.59194,-24.345341 13.97465,-10.035153 27.93687,-20.088946 41.88045,-30.16138 m 38.7798,98.673818 c -7.58695,13.12958 -15.16147,26.26538 -22.74842,39.38875 -1.30488,2.07538 -2.49791,4.21911 -3.29327,6.54304 4.75971,0.65865 9.56913,0.23612 14.3599,0.34176 15.45351,-0.0746 30.91945,0.16155 46.37297,-0.11806 -0.25477,-1.08119 -0.46603,-2.19345 -0.98799,-3.18143 -9.10309,-15.73934 -18.21861,-31.47869 -27.272,-47.2491 -0.66486,-0.88856 -1.11225,-2.46684 -2.52276,-2.06916 -1.59072,1.92003 -2.64705,4.20668 -3.90843,6.3442 m -84.33877,90.93152 c -1.83927,8.54387 1.4975,18.41125 9.21494,22.9659 5.44943,3.64124 12.33422,3.39269 18.59144,2.92666 6.83508,-0.62137 13.29735,-4.82806 16.32964,-11.02935 2.15616,-4.61679 2.86452,-9.91709 1.75848,-14.91292 -15.29817,-0.006 -30.59634,-0.0994 -45.8945,0.0497 m 129.48763,-0.0249 c -1.59693,8.20832 1.24896,17.59104 8.41959,22.34453 5.53642,4.00785 12.69462,4.06998 19.23145,3.67852 7.4751,-0.52817 14.52767,-5.50536 17.19956,-12.56414 1.90762,-4.21911 2.07539,-8.94153 1.32353,-13.45269 -15.39138,-0.0932 -30.78275,-0.0808 -46.17413,-0.006 z"
     id="path1-1"
     style="fill:#ff5555;stroke-width:0.621373"
     sodipodi:nodetypes="ccccccccccccccccccccccccccccccccccccccccccccccccccccccccccccccccccsccccss" />
  <path
     fill="#000000"
     opacity="1"
     d="m 63.969499,275.2243 c 11.63829,2.47306 23.407067,4.26261 35.101282,6.46227 6.356629,0.93205 12.675979,2.21208 19.082319,2.79617 0.0497,5.35001 -0.0808,10.70002 0.0249,16.04382 0.17399,3.55424 3.84629,5.38107 6.84752,6.24478 13.00531,3.90221 26.3648,6.90344 39.94177,7.82928 4.28125,0.16156 8.52522,1.09983 12.8189,0.82643 2.99501,-0.24234 5.1201,-3.28706 4.98961,-6.17022 0.0311,-6.4312 -0.0186,-12.8624 0,-19.29359 19.46757,0 38.94136,0 58.40893,0 0.0186,6.43119 -0.0311,12.86239 0,19.29359 -0.0746,2.23693 1.09362,4.49873 3.06958,5.59234 1.92625,1.00662 4.19426,0.57166 6.27585,0.52817 6.56169,-0.76429 13.17308,-1.02527 19.71613,-1.96975 8.57493,-1.33595 17.038,-3.31191 25.38924,-5.63584 2.46063,-0.7705 5.04554,-1.32974 7.25141,-2.72782 1.72741,-1.0874 3.082,-2.98259 2.92666,-5.10147 0.0249,-5.15116 -0.0311,-10.30855 -0.006,-15.45972 12.22238,-1.35459 24.29563,-3.82144 36.41859,-5.87818 5.92168,-1.11225 11.88063,-2.05674 17.76502,-3.38026 -1.03148,7.67394 -2.36121,15.37274 -5.33137,22.56822 -1.13711,3.28705 -3.01365,6.26343 -4.15076,9.54427 3.43618,4.06998 8.05919,6.8848 11.83091,10.61302 -2.35499,9.27087 -4.79699,18.51067 -7.13334,27.78153 -7.00907,-0.70215 -14.01815,-1.45401 -21.02722,-2.1313 -1.32352,-0.0932 -2.65326,-0.24855 -3.96435,-0.0559 -2.62219,1.66528 -4.85291,3.88979 -7.24519,5.85954 -1.56586,1.19925 -1.27381,3.38026 -1.54722,5.11389 -0.37903,7.02149 -1.16818,14.00571 -1.59071,21.021 -9.69961,0.81399 -19.39922,1.57207 -29.11747,2.16859 -2.76511,-4.96476 -5.18225,-10.12836 -8.41338,-14.82593 -18.93941,6.99043 -39.0035,10.73109 -59.14836,11.60101 -7.45025,0.0746 -14.89428,0.0994 -22.35074,0 -20.13866,-0.86992 -40.20896,-4.61058 -59.14215,-11.60101 -3.23114,4.69136 -5.64827,9.86117 -8.41338,14.82593 -9.71203,-0.59031 -19.41786,-1.3546 -29.11126,-2.16238 -0.43496,-7.01528 -1.21789,-14.00572 -1.59692,-21.02721 -0.27341,-1.73363 0.0186,-3.91464 -1.54722,-5.11389 -2.398491,-1.96975 -4.623005,-4.19426 -7.24519,-5.85954 -1.478865,-0.20505 -2.970156,-0.0124 -4.449024,0.0994 -6.847515,0.67108 -13.69503,1.4043 -20.542546,2.08781 -2.336355,-9.27086 -4.784559,-18.51687 -7.133345,-27.78153 3.771726,-3.72822 8.394731,-6.53683 11.824702,-10.61302 -0.919631,-2.8521 -2.584907,-5.39351 -3.610168,-8.20832 -3.280844,-7.58695 -4.803205,-15.75177 -5.865748,-23.90417 z"
     id="path2-5"
     style="fill:#00c0ff;fill-opacity:1;stroke-width:0.621373" />
  <path
     style="font-size:85.3333px;font-family:'METHANERSE Free Trial';-inkscape-font-specification:'METHANERSE Free Trial';letter-spacing:0px;word-spacing:0px;white-space:pre;fill:#ff2a2a;stroke-width:0.796016"
     d="m 459.99175,230.71098 h -33.01236 q -3.19255,0 -5.97755,-1.15474 -2.71706,-1.22268 -4.82278,-3.32842 -2.03781,-2.10572 -3.26049,-4.82279 -1.15474,-2.78499 -1.15474,-5.97754 v -19.90252 q 0,-3.19254 1.15474,-5.97754 1.22268,-2.78499 3.26049,-4.82279 2.10572,-2.10573 4.82278,-3.26048 2.785,-1.22268 5.97755,-1.22268 h 33.01236 q 2.78499,0 5.29827,1.0189 2.58122,0.95097 4.5511,2.64914 1.96987,1.69816 3.3284,4.00767 1.35853,2.30951 1.83402,4.95864 0.13585,1.0189 -0.54341,1.83402 -0.67927,0.81512 -1.69817,0.81512 -0.81512,0 -1.42646,-0.5434 -0.61134,-0.54342 -0.74719,-1.29062 -0.33963,-1.90194 -1.29061,-3.53218 -0.95098,-1.63024 -2.37744,-2.85292 -1.35852,-1.22268 -3.19254,-1.90194 -1.7661,-0.67927 -3.73597,-0.67927 h -33.01236 q -2.24157,0 -4.21145,0.88304 -1.90194,0.81512 -3.39633,2.30951 -1.42646,1.42646 -2.30951,3.39634 -0.81512,1.96986 -0.81512,4.21144 v 19.90252 q 0,2.24158 0.81512,4.21145 0.88305,1.96987 2.30951,3.46426 1.49439,1.42646 3.39633,2.3095 1.96988,0.81512 4.21145,0.81512 h 33.01236 q 2.24158,0 4.14353,-0.81512 1.96986,-0.88304 3.39632,-2.3095 1.4944,-1.49439 2.30952,-3.46426 0.88304,-1.96987 0.88304,-4.21145 v -7.67571 h -40.0088 q -0.95097,0 -1.63024,-0.67927 -0.61134,-0.67927 -0.61134,-1.63024 0,-0.95097 0.61134,-1.56231 0.67927,-0.67927 1.63024,-0.67927 h 44.49196 v 12.2268 q 0,3.19255 -1.22268,5.97754 -1.15475,2.71707 -3.26048,4.82279 -2.0378,2.10574 -4.8228,3.32842 -2.78498,1.15474 -5.90961,1.15474 z m 66.16063,0 h -33.01236 q -3.19255,0 -5.97755,-1.15474 -2.71707,-1.22268 -4.82279,-3.32842 -2.0378,-2.10572 -3.26048,-4.82279 -1.15476,-2.78499 -1.15476,-5.97754 v -7.47193 q 0,-0.95098 0.61134,-1.56232 0.67928,-0.67926 1.63024,-0.67926 0.95098,0 1.56232,0.67926 0.67926,0.61134 0.67926,1.56232 v 7.47193 q 0,2.24158 0.81512,4.21145 0.88305,1.96987 2.30951,3.46426 1.49439,1.42646 3.39634,2.3095 1.96986,0.81512 4.21145,0.81512 h 33.01236 q 2.24157,0 4.14352,-0.81512 1.96987,-0.88304 3.39633,-2.3095 1.49438,-1.49439 2.3095,-3.46426 0.88306,-1.96987 0.88306,-4.21145 v -19.90252 q 0,-2.24158 -0.88306,-4.21144 -0.81512,-1.96988 -2.3095,-3.39634 -1.42646,-1.49439 -3.39633,-2.30951 -1.90195,-0.88304 -4.14352,-0.88304 h -33.01236 q -1.96987,0 -3.80389,0.67927 -1.7661,0.67926 -3.19256,1.90194 -1.35853,1.22268 -2.30951,2.85292 -0.95097,1.63024 -1.2906,3.53218 -0.13586,0.7472 -0.7472,1.29062 -0.61134,0.5434 -1.42646,0.5434 -1.0189,0 -1.76608,-0.81512 -0.67928,-0.81512 -0.4755,-1.83402 0.4755,-2.64913 1.7661,-4.95864 1.35854,-2.30951 3.3284,-4.00767 2.0378,-1.69817 4.55109,-2.64914 2.51328,-1.0189 5.36621,-1.0189 h 33.01236 q 3.12462,0 5.90961,1.22268 2.785,1.15475 4.8228,3.26048 2.10572,2.0378 3.26047,4.82279 1.22268,2.785 1.22268,5.97754 v 19.90252 q 0,3.19255 -1.22268,5.97754 -1.15475,2.71707 -3.26047,4.82279 -2.0378,2.10574 -4.8228,3.32842 -2.78499,1.15474 -5.90961,1.15474 z m 62.83221,0 h -31.17833 q -0.95098,0 -1.63024,-0.61134 -0.61135,-0.67926 -0.61135,-1.63024 0,-0.95096 0.61135,-1.56231 0.67926,-0.67927 1.63024,-0.67927 h 31.17833 q 2.44536,0 4.61901,-0.95097 2.17365,-0.95097 3.80389,-2.51328 1.63024,-1.63024 2.51329,-3.8039 0.95097,-2.17365 0.95097,-4.61901 v -17.72885 q 0,-2.44536 -0.95097,-4.61902 -0.88305,-2.17365 -2.51329,-3.80389 -1.63024,-1.63024 -3.80389,-2.51329 -2.17365,-0.95097 -4.61901,-0.95097 h -37.15588 q -1.35854,0 -2.3095,0.95097 -0.95098,0.95097 -0.95098,2.30951 v 40.48428 q 0,0.95098 -0.67927,1.63024 -0.61134,0.61134 -1.56231,0.61134 -0.95098,0 -1.63024,-0.61134 -0.61134,-0.67926 -0.61134,-1.63024 v -41.0277 q 0,-3.05669 2.0378,-5.09449 2.10572,-2.10573 5.16242,-2.10573 h 37.6993 q 3.39633,0 6.3851,1.29061 2.98878,1.2906 5.16243,3.53218 2.24158,2.17365 3.53218,5.16243 1.29062,2.98877 1.29062,6.38511 v 17.72885 q 0,3.39633 -1.29062,6.38511 -1.2906,2.98877 -3.53218,5.23035 -2.17365,2.17366 -5.16243,3.46426 -2.98877,1.2906 -6.3851,1.2906 z m 67.31528,0 h -33.01235 q -3.19256,0 -5.97754,-1.15474 -2.71708,-1.22268 -4.8228,-3.32842 -2.0378,-2.10572 -3.26048,-4.82279 -1.15475,-2.78499 -1.15475,-5.97754 v -7.47193 q 0,-0.95098 0.61134,-1.56232 0.67926,-0.67926 1.63024,-0.67926 0.95097,0 1.56231,0.67926 0.67927,0.61134 0.67927,1.56232 v 7.47193 q 0,2.24158 0.81512,4.21145 0.88304,1.96987 2.3095,3.46426 1.49439,1.42646 3.39633,2.3095 1.96988,0.81512 4.21146,0.81512 h 33.01235 q 2.24158,0 4.14353,-0.81512 1.96987,-0.88304 3.39634,-2.3095 1.49438,-1.49439 2.3095,-3.46426 0.88304,-1.96987 0.88304,-4.21145 v -19.90252 q 0,-2.24158 -0.88304,-4.21144 -0.81512,-1.96988 -2.3095,-3.39634 -1.42647,-1.49439 -3.39634,-2.30951 -1.90195,-0.88304 -4.14353,-0.88304 h -33.01235 q -1.96988,0 -3.8039,0.67927 -1.76608,0.67926 -3.19255,1.90194 -1.35853,1.22268 -2.3095,2.85292 -0.95098,1.63024 -1.29061,3.53218 -0.13585,0.7472 -0.74719,1.29062 -0.61134,0.5434 -1.42646,0.5434 -1.0189,0 -1.7661,-0.81512 -0.67926,-0.81512 -0.47548,-1.83402 0.47548,-2.64913 1.76609,-4.95864 1.35853,-2.30951 3.32841,-4.00767 2.03779,-1.69817 4.55109,-2.64914 2.51328,-1.0189 5.3662,-1.0189 h 33.01235 q 3.12463,0 5.90962,1.22268 2.78499,1.15475 4.82279,3.26048 2.10573,2.0378 3.26048,4.82279 1.22269,2.785 1.22269,5.97754 v 19.90252 q 0,3.19255 -1.22269,5.97754 -1.15475,2.71707 -3.26048,4.82279 -2.0378,2.10574 -4.82279,3.32842 -2.78499,1.15474 -5.90962,1.15474 z m 34.71064,-50.4695 q 0.95098,0 1.63024,0.67927 0.67926,0.61134 0.67926,1.56231 0,0.95097 -0.67926,1.63024 -0.67926,0.61134 -1.63024,0.61134 h -17.93264 q -0.95097,0 -1.63024,-0.61134 -0.61134,-0.67927 -0.61134,-1.63024 0,-0.95097 0.61134,-1.56231 0.67927,-0.67927 1.63024,-0.67927 z m 37.76723,0 q 0.95096,0 1.5623,0.67927 0.67927,0.61134 0.67927,1.56231 0,0.95097 -0.67927,1.63024 -0.61134,0.61134 -1.5623,0.61134 h -24.11397 q -0.61134,0 -1.08683,0.47549 -0.40756,0.40755 -0.40756,1.01889 v 42.25038 q 0,0.95098 -0.67926,1.63024 -0.61134,0.61134 -1.56232,0.61134 -0.95097,0 -1.63024,-0.61134 -0.61134,-0.67926 -0.61134,-1.63024 v -42.25038 q 0,-2.51328 1.69817,-4.21145 1.76609,-1.76609 4.27938,-1.76609 z"
     id="path15" />
  <path
     style="font-size:85.3333px;font-family:'METHANERSE Free Trial';-inkscape-font-specification:'METHANERSE Free Trial';letter-spacing:0px;word-spacing:0px;white-space:pre;fill:#5fbcd3;stroke-width:0.796016"
     d="m 781.21714,230.71098 h -32.19723 q -3.19255,0 -5.97755,-1.15474 -2.71706,-1.22268 -4.82279,-3.32842 -2.10573,-2.10572 -3.3284,-4.82279 -1.15476,-2.78499 -1.15476,-5.97754 v -19.90252 q 0,-3.19254 1.15476,-5.97754 1.22267,-2.78499 3.3284,-4.82279 2.10573,-2.10573 4.82279,-3.26048 2.785,-1.22268 5.97755,-1.22268 h 32.94443 q 2.85292,0 5.3662,1.0189 2.51329,0.95097 4.48316,2.64914 2.0378,1.69816 3.32841,4.00767 1.35853,2.30951 1.83402,4.95864 0.20378,1.0189 -0.47549,1.83402 -0.67927,0.81512 -1.69817,0.81512 h -0.0679 q -0.74719,0 -1.42646,-0.5434 -0.61134,-0.54342 -0.74719,-1.29062 -0.33963,-1.90194 -1.29061,-3.53218 -0.88304,-1.63024 -2.3095,-2.85292 -1.42646,-1.22268 -3.26048,-1.90194 -1.76609,-0.67927 -3.73597,-0.67927 h -32.94443 q -2.24158,0 -4.21145,0.88304 -1.96987,0.81512 -3.46426,2.30951 -1.42646,1.42646 -2.3095,3.39634 -0.81512,1.96986 -0.81512,4.21144 v 19.90252 q 0,2.24158 0.81512,4.21145 0.88304,1.96987 2.3095,3.46426 1.49439,1.42646 3.46426,2.3095 1.96987,0.81512 4.21145,0.81512 h 32.46895 q 2.92084,0 5.50205,-1.2906 2.64914,-1.35853 4.21146,-3.93975 1.0189,-1.76609 1.35853,-3.73596 0.13585,-0.81512 0.74719,-1.29061 0.67927,-0.54341 1.42646,-0.54341 1.08683,0 1.7661,0.81512 0.67926,0.81512 0.47548,1.83402 -0.40756,2.51328 -1.49438,4.41523 -1.0189,1.96987 -2.58122,3.53218 -1.49438,1.4944 -3.39633,2.58122 -1.83402,1.0189 -4.00767,1.56231 -2.10573,0.54341 -4.27939,0.54341 z m 66.77191,0 H 814.9767 q -3.19256,0 -5.97755,-1.15474 -2.71706,-1.22268 -4.8228,-3.32842 -2.0378,-2.10572 -3.26048,-4.82279 -1.15474,-2.78499 -1.15474,-5.97754 v -7.47193 q 0,-0.95098 0.61134,-1.56232 0.67926,-0.67926 1.63024,-0.67926 0.95096,0 1.5623,0.67926 0.67928,0.61134 0.67928,1.56232 v 7.47193 q 0,2.24158 0.81512,4.21145 0.88304,1.96987 2.3095,3.46426 1.49439,1.42646 3.39633,2.3095 1.96988,0.81512 4.21146,0.81512 h 33.01235 q 2.24158,0 4.14353,-0.81512 1.96987,-0.88304 3.39633,-2.3095 1.49439,-1.49439 2.30951,-3.46426 0.88304,-1.96987 0.88304,-4.21145 v -19.90252 q 0,-2.24158 -0.88304,-4.21144 -0.81512,-1.96988 -2.30951,-3.39634 -1.42646,-1.49439 -3.39633,-2.30951 -1.90195,-0.88304 -4.14353,-0.88304 H 814.9767 q -1.96988,0 -3.8039,0.67927 -1.76609,0.67926 -3.19255,1.90194 -1.35853,1.22268 -2.3095,2.85292 -0.95098,1.63024 -1.29062,3.53218 -0.13584,0.7472 -0.74718,1.29062 -0.61134,0.5434 -1.42646,0.5434 -1.0189,0 -1.7661,-0.81512 -0.67926,-0.81512 -0.47548,-1.83402 0.47548,-2.64913 1.76608,-4.95864 1.35854,-2.30951 3.32842,-4.00767 2.03779,-1.69817 4.55108,-2.64914 2.51329,-1.0189 5.36621,-1.0189 h 33.01235 q 3.12463,0 5.90962,1.22268 2.78499,1.15475 4.82279,3.26048 2.10573,2.0378 3.26048,4.82279 1.22268,2.785 1.22268,5.97754 v 19.90252 q 0,3.19255 -1.22268,5.97754 -1.15475,2.71707 -3.26048,4.82279 -2.0378,2.10574 -4.82279,3.32842 -2.78499,1.15474 -5.90962,1.15474 z m 72.68161,-3.73596 q 0.67924,0.7472 0.54336,1.7661 -0.1358,0.95096 -0.95092,1.49438 -0.67932,0.54341 -1.56234,0.40756 -0.88302,-0.0679 -1.42646,-0.67926 l -20.10625,-19.69874 h -17.45718 q -0.951,0 -1.63024,-0.61134 -0.61134,-0.67926 -0.61134,-1.63024 0,-0.95097 0.61134,-1.56231 0.67924,-0.67927 1.63024,-0.67927 h 27.91787 q 2.51326,0 4.27938,-1.76609 1.83402,-1.76609 1.83402,-4.34731 v -8.83046 q 0,-2.58122 -1.83402,-4.34731 -1.76612,-1.76609 -4.27938,-1.76609 h -33.96337 q -1.35848,0 -2.30948,0.95097 -0.95098,0.95097 -0.95098,2.30951 v 40.48428 q 0,0.95098 -0.67926,1.63024 -0.61134,0.61134 -1.56232,0.61134 -0.95097,0 -1.63024,-0.61134 -0.61134,-0.67926 -0.61134,-1.63024 v -41.0277 q 0,-3.05669 2.0378,-5.09449 2.10573,-2.10573 5.16246,-2.10573 h 34.50673 q 2.1736,0 4.0756,0.88305 1.96982,0.81512 3.39628,2.24158 1.42646,1.42646 2.24158,3.39633 0.8831,1.90194 0.8831,4.0756 v 8.83046 q 0,2.17366 -0.8831,4.14353 -0.81512,1.90195 -2.24158,3.32841 -1.42646,1.42646 -3.39628,2.3095 -1.902,0.81512 -4.0756,0.81512 h -4.0756 z m 5.56996,-42.25038 q -0.951,0 -1.63024,-0.61134 -0.61134,-0.67927 -0.61134,-1.63024 0,-0.95097 0.61134,-1.56231 0.67924,-0.67927 1.63024,-0.67927 h 45.23917 q 0.95092,0 1.56226,0.67927 0.67932,0.61134 0.67932,1.56231 0,0.95097 -0.67932,1.63024 -0.61134,0.61134 -1.56226,0.61134 z m 47.14109,41.50318 q 0.951,0 1.56234,0.67927 0.67925,0.61135 0.67925,1.56231 0,0.95098 -0.67925,1.63024 -0.61134,0.61134 -1.56234,0.61134 H 931.471 q -1.56234,0 -2.9209,-0.54341 -1.35848,-0.61133 -2.37738,-1.63023 -1.0189,-1.0189 -1.63024,-2.37744 -0.54344,-1.35854 -0.54344,-2.92085 v -18.54397 q 0,-1.56232 0.54344,-2.92085 0.61134,-1.35853 1.63024,-2.37743 1.0189,-1.0189 2.37738,-1.56231 1.35856,-0.61134 2.9209,-0.61134 h 35.93319 q 0.95092,0 1.56226,0.67926 0.67932,0.61134 0.67932,1.56231 0,0.95098 -0.67932,1.63024 -0.61134,0.61134 -1.56226,0.61134 H 931.471 q -1.22268,0 -2.10578,0.88305 -0.88302,0.88305 -0.88302,2.10573 v 18.54397 q 0,1.22268 0.88302,2.10573 0.8831,0.88304 2.10578,0.88304 z"
     id="path16" />
  <path
     id="text11"
     style="font-style:normal;font-weight:normal;font-size:36.2969px;line-height:1.25;font-family:sans-serif;letter-spacing:0px;word-spacing:0px;fill:#cccccc;fill-opacity:1;stroke:none;stroke-width:0.907423"
     d="m 464.41602,247.78516 v 3.8457 h 2.19726 v -3.8457 z m 43.5625,0 v 3.8457 h 2.19921 v -3.8457 z m 87.12695,0 v 3.8457 h 2.19726 v -3.8457 z m 65.3457,0 v 3.8457 h 2.19727 v -3.8457 z m 239.59766,0 v 3.8457 h 2.19922 v -3.8457 z m -330.28711,0.74414 c -0.36628,0 -0.6257,0.0711 -0.7793,0.21289 -0.1536,0.14178 -0.23047,0.31857 -0.23047,0.53125 0,0.22449 0.0769,0.40899 0.23047,0.55078 0.16542,0.14178 0.42484,0.21289 0.7793,0.21289 h 4.28906 v 19.24609 h -5.84766 c -0.35446,0 -0.61007,0.0711 -0.76367,0.21289 -0.1536,0.12997 -0.23047,0.30676 -0.23047,0.53125 0,0.21268 0.0769,0.38947 0.23047,0.53125 0.1536,0.14179 0.40921,0.21289 0.76367,0.21289 h 13.18555 c 0.36628,0 0.6257,-0.0711 0.7793,-0.21289 0.1536,-0.14178 0.23047,-0.31857 0.23047,-0.53125 0,-0.22449 -0.0769,-0.40128 -0.23047,-0.53125 -0.1536,-0.14178 -0.41302,-0.21289 -0.7793,-0.21289 h -5.84961 v -20.7539 z m 158.00195,1.02929 c -1.65415,0 -3.18381,0.4074 -4.58984,1.22266 -1.40603,0.81526 -2.51677,1.99515 -3.33203,3.54297 -0.80345,1.536 -1.20508,3.11948 -1.20508,4.75 v 2.73047 c 0,1.61871 0.22865,2.95429 0.68945,4.00586 0.47262,1.05157 1.12986,2.0028 1.96875,2.85351 0.83889,0.85071 1.86124,1.51176 3.06641,1.98438 1.21698,0.47261 2.62172,0.70898 4.21679,0.70898 1.12247,0 2.24473,-0.1595 3.36719,-0.47851 1.13428,-0.31902 2.27002,-0.79176 3.4043,-1.41797 v -6.38086 c 0.59077,0 0.94435,-0.0173 1.0625,-0.0527 0.11815,-0.0473 0.22384,-0.13565 0.31836,-0.26562 0.0945,-0.12997 0.14258,-0.27218 0.14258,-0.42578 0,-0.22449 -0.0769,-0.40128 -0.23047,-0.53125 -0.1536,-0.14179 -0.40726,-0.21289 -0.76172,-0.21289 l -7.16016,-0.0176 c -0.35446,0 -0.60812,0.0711 -0.76172,0.21289 -0.1536,0.14178 -0.23046,0.32434 -0.23046,0.54883 0,0.22449 0.0769,0.40704 0.23046,0.54883 0.1536,0.12996 0.40726,0.19531 0.76172,0.19531 h 5.1211 v 5.51172 c -1.02794,0.47261 -1.92536,0.80314 -2.69336,0.99218 -0.768,0.18905 -1.60203,0.28516 -2.5,0.28516 -2.65846,0 -4.74349,-0.72835 -6.25586,-2.18164 -1.51237,-1.45329 -2.26758,-3.4134 -2.26758,-5.88281 v -2.71289 c 0,-1.39422 0.319,-2.63945 0.95703,-3.73828 0.95705,-1.67779 1.98515,-2.81158 3.08399,-3.40235 1.11064,-0.60258 2.35011,-0.90429 3.7207,-0.90429 1.45329,0 2.79464,0.319 4.02344,0.95703 1.24061,0.63803 1.8959,1.45858 1.96679,2.46289 0.0118,0.34264 0.0829,0.58477 0.21289,0.72656 0.14179,0.12997 0.31281,0.19531 0.51368,0.19531 0.21267,0 0.39141,-0.0711 0.5332,-0.21289 0.14178,-0.1536 0.21289,-0.41302 0.21289,-0.7793 v -3.36718 c 0,-0.35446 -0.0711,-0.61007 -0.21289,-0.76368 -0.14179,-0.1536 -0.32053,-0.22851 -0.5332,-0.22851 -0.16542,0 -0.31144,0.0461 -0.44141,0.14062 -0.12997,0.0827 -0.22032,0.18263 -0.26758,0.30079 -0.0354,0.11815 -0.0527,0.46792 -0.0527,1.04687 -1.65416,-1.31151 -3.6796,-1.9668 -6.07813,-1.9668 z m -292.82226,0.47852 c -0.35447,0 -0.60812,0.0691 -0.76172,0.21094 -0.1536,0.12997 -0.23047,0.30871 -0.23047,0.5332 0,0.22449 0.0769,0.40704 0.23047,0.54883 0.1536,0.12997 0.40725,0.19531 0.76172,0.19531 h 0.93945 v 17.75781 h -1.25781 c -0.35446,0 -0.60812,0.0711 -0.76172,0.21289 -0.1536,0.12997 -0.23047,0.30676 -0.23047,0.53125 0,0.21268 0.0769,0.38947 0.23047,0.53125 0.1536,0.14179 0.40726,0.21289 0.76172,0.21289 h 5.49414 c 0.35446,0 0.60812,-0.0711 0.76172,-0.21289 0.1536,-0.14178 0.23047,-0.31857 0.23047,-0.53125 -10e-6,-0.22449 -0.0769,-0.40128 -0.23047,-0.53125 -0.1536,-0.14178 -0.40726,-0.21289 -0.76172,-0.21289 h -2.7461 v -17.75781 h 0.28321 l 5.72461,13.02539 h 1.70117 l 5.61719,-13.02539 h 0.32031 v 17.75781 h -2.74805 c -0.36628,0 -0.6257,0.0711 -0.7793,0.21289 -0.1536,0.12997 -0.23046,0.30676 -0.23046,0.53125 0,0.21268 0.0769,0.38947 0.23046,0.53125 0.16542,0.14179 0.42484,0.21289 0.7793,0.21289 h 5.47656 c 0.36628,0 0.6257,-0.0711 0.7793,-0.21289 0.1536,-0.14178 0.23047,-0.31857 0.23047,-0.53125 0,-0.22449 -0.0769,-0.40128 -0.23047,-0.53125 -0.1536,-0.14178 -0.41302,-0.21289 -0.7793,-0.21289 h -1.24023 v -17.75781 h 0.92187 c 0.36628,0 0.6257,-0.0653 0.7793,-0.19531 0.1536,-0.14179 0.23047,-0.32434 0.23047,-0.54883 0,-0.22449 -0.0769,-0.40323 -0.23047,-0.5332 -0.1536,-0.14179 -0.41302,-0.21094 -0.7793,-0.21094 h -3.65039 l -5.54882,12.83008 -5.63477,-12.83008 z m 201.37109,0 c -0.21268,0 -0.38947,0.0749 -0.53125,0.22851 -0.14178,0.15361 -0.21289,0.40922 -0.21289,0.76368 v 4.39453 h -2.74805 c -0.35446,0 -0.60812,0.0711 -0.76172,0.21289 -0.1536,0.14178 -0.23047,0.31857 -0.23047,0.53125 0,0.22449 0.0769,0.409 0.23047,0.55078 0.1536,0.14178 0.40726,0.21094 0.76172,0.21094 h 2.74805 v 9.9082 c 0,1.3824 0.51308,2.48161 1.54102,3.29688 1.02793,0.81526 2.40962,1.22265 4.14648,1.22265 1.33514,0 2.7303,-0.22484 4.18359,-0.67383 1.46511,-0.4608 2.38754,-0.88548 2.76563,-1.27539 0.1536,-0.1536 0.23047,-0.31886 0.23047,-0.49609 0,-0.20086 -0.0711,-0.37384 -0.21289,-0.51563 -0.14179,-0.1536 -0.30705,-0.23046 -0.4961,-0.23046 -0.1536,0 -0.34963,0.0769 -0.58594,0.23046 -0.64984,0.3781 -1.55879,0.7221 -2.72851,1.0293 -1.16972,0.29539 -2.25741,0.44336 -3.26172,0.44336 -1.33514,0 -2.35172,-0.29019 -3.04883,-0.86914 -0.68529,-0.57895 -1.02734,-1.29959 -1.02734,-2.16211 v -9.9082 h 8.08203 c 0.35446,0 0.60812,-0.0692 0.76172,-0.21094 0.1536,-0.14178 0.23047,-0.32053 0.23047,-0.5332 0,-0.2245 -0.0769,-0.40705 -0.23047,-0.54883 -0.1536,-0.14179 -0.40726,-0.21289 -0.76172,-0.21289 h -8.08203 v -4.39453 c 0,-0.35446 -0.0711,-0.61007 -0.21289,-0.76368 -0.14179,-0.1536 -0.32434,-0.22851 -0.54883,-0.22851 z m 191.51562,0 c -0.35446,0 -0.60811,0.0691 -0.76171,0.21094 -0.1536,0.12997 -0.23047,0.30871 -0.23047,0.5332 0,0.22449 0.0769,0.40704 0.23047,0.54883 0.1536,0.12997 0.40725,0.19531 0.76171,0.19531 h 2.00196 v 17.75781 h -2.00196 c -0.35446,0 -0.60811,0.0711 -0.76171,0.21289 -0.1536,0.12997 -0.23047,0.30676 -0.23047,0.53125 0,0.21268 0.0769,0.38947 0.23047,0.53125 0.1536,0.14179 0.40725,0.21289 0.76171,0.21289 h 16.42969 v -5.88281 c 0,-0.35446 -0.0711,-0.60812 -0.21289,-0.76172 -0.12997,-0.1536 -0.30676,-0.23047 -0.53125,-0.23047 -0.22449,0 -0.40899,0.0769 -0.55078,0.23047 -0.12997,0.1536 -0.19531,0.40726 -0.19531,0.76172 v 4.39453 h -11.44922 v -8.52539 h 5.33594 v 1.6836 c 0,0.35446 0.0711,0.61007 0.21289,0.76367 0.14178,0.1536 0.32433,0.23047 0.54883,0.23047 0.21267,0 0.38946,-0.0769 0.53125,-0.23047 0.14178,-0.1536 0.21289,-0.40921 0.21289,-0.76367 v -4.85547 c 0,-0.35446 -0.0711,-0.60812 -0.21289,-0.76172 -0.14179,-0.1536 -0.31858,-0.23047 -0.53125,-0.23047 -0.2245,0 -0.40705,0.0769 -0.54883,0.23047 -0.14179,0.1536 -0.21289,0.40726 -0.21289,0.76172 v 1.68359 h -5.33594 v -7.74414 h 10.66992 v 3.63281 c 0,0.35446 0.0653,0.60812 0.19531,0.76172 0.14179,0.1536 0.32434,0.23047 0.54883,0.23047 0.22449,0 0.40128,-0.0769 0.53125,-0.23047 0.14179,-0.1536 0.21289,-0.40726 0.21289,-0.76172 v -5.12109 z m -339.32617,4.85547 c -1.05157,0 -1.99704,0.19984 -2.83593,0.60156 -0.8389,0.40172 -1.77861,1.13007 -2.81836,2.18164 v -2.25195 h -2.7461 c -0.35446,0 -0.61007,0.0711 -0.76367,0.21289 -0.1536,0.14178 -0.23047,0.31857 -0.23047,0.53125 0,0.22449 0.0769,0.409 0.23047,0.55078 0.1536,0.14178 0.40921,0.21094 0.76367,0.21094 h 1.25782 v 12.35351 h -1.6836 c -0.35446,0 -0.60812,0.0711 -0.76172,0.21289 -0.1536,0.12997 -0.23047,0.30676 -0.23047,0.53125 0,0.21268 0.0769,0.38947 0.23047,0.53125 0.1536,0.14179 0.40726,0.21289 0.76172,0.21289 h 4.85547 c 0.35446,0 0.60812,-0.0711 0.76172,-0.21289 0.1536,-0.14178 0.23047,-0.31857 0.23047,-0.53125 0,-0.22449 -0.0769,-0.40128 -0.23047,-0.53125 -0.1536,-0.14178 -0.40726,-0.21289 -0.76172,-0.21289 h -1.68359 v -9.33984 c 1.33513,-1.57145 2.36324,-2.5515 3.08398,-2.94141 0.72074,-0.40172 1.57206,-0.60351 2.55274,-0.60351 1.28787,0 2.31598,0.36705 3.08398,1.09961 0.768,0.72074 1.15039,1.60663 1.15039,2.6582 v 9.12695 h -1.24023 c -0.36628,0 -0.6257,0.0711 -0.7793,0.21289 -0.1536,0.12997 -0.23047,0.30676 -0.23047,0.53125 0,0.21268 0.0769,0.38947 0.23047,0.53125 0.1536,0.14179 0.41302,0.21289 0.7793,0.21289 h 3.98828 c 0.35446,0 0.60812,-0.0711 0.76172,-0.21289 0.1536,-0.14178 0.23046,-0.31857 0.23046,-0.53125 0,-0.22449 -0.0769,-0.40128 -0.23046,-0.53125 -0.1536,-0.14178 -0.40726,-0.21289 -0.76172,-0.21289 h -1.25782 v -9.375 c 0,-0.86252 -0.27289,-1.70231 -0.8164,-2.51758 -0.53169,-0.82707 -1.1274,-1.41702 -1.78906,-1.77148 -0.93342,-0.48443 -1.96729,-0.72656 -3.10157,-0.72656 z m 39.75196,0 c -1.27607,0 -2.5463,0.67834 -3.81055,2.03711 v -1.50586 h -2.74609 c -0.35447,0 -0.60812,0.0711 -0.76172,0.21289 -0.1536,0.14178 -0.23047,0.31857 -0.23047,0.53125 0,0.22449 0.0769,0.409 0.23047,0.55078 0.1536,0.14178 0.40725,0.21094 0.76172,0.21094 h 1.25781 v 12.35351 h -1.25781 c -0.35447,0 -0.60812,0.0711 -0.76172,0.21289 -0.1536,0.12997 -0.23047,0.30676 -0.23047,0.53125 0,0.21268 0.0769,0.38947 0.23047,0.53125 0.1536,0.14179 0.40725,0.21289 0.76172,0.21289 h 4.00585 c 0.35447,0 0.60812,-0.0711 0.76172,-0.21289 0.1536,-0.14178 0.23047,-0.31857 0.23047,-0.53125 0,-0.22449 -0.0769,-0.40128 -0.23047,-0.53125 -0.1536,-0.14178 -0.40725,-0.21289 -0.76172,-0.21289 h -1.25976 v -9.87109 c 0.79163,-1.18154 1.54879,-2.01557 2.26953,-2.5 0.51988,-0.34265 1.04448,-0.51367 1.57617,-0.51367 0.57896,0 1.09975,0.25942 1.56055,0.77929 0.47261,0.50807 0.70898,1.15955 0.70898,1.95118 v 11.64257 h 2.7461 c 0.35446,0 0.61007,-0.0711 0.76367,-0.21289 0.1536,-0.14178 0.23047,-0.31857 0.23047,-0.53125 0,-0.22449 -0.0769,-0.40128 -0.23047,-0.53125 -0.1536,-0.14178 -0.40921,-0.21289 -0.76367,-0.21289 h -1.24024 v -9.87109 c 0.768,-1.19335 1.45406,-1.99086 2.05664,-2.39258 0.60259,-0.41354 1.17525,-0.62109 1.71875,-0.62109 0.60259,0 1.13491,0.24789 1.59571,0.74414 0.4608,0.49624 0.6914,1.12272 0.6914,1.8789 v 11.75 h 2.7461 c 0.35446,0 0.60812,-0.0711 0.76172,-0.21289 0.1536,-0.14178 0.23046,-0.31857 0.23046,-0.53125 0,-0.22449 -0.0769,-0.40128 -0.23046,-0.53125 -0.1536,-0.14178 -0.40726,-0.21289 -0.76172,-0.21289 h -1.25782 v -10.40234 c 0,-1.06339 -0.41892,-2.04539 -1.25781,-2.94336 -0.63803,-0.69711 -1.49511,-1.04492 -2.57031,-1.04492 -0.68529,0 -1.37135,0.2056 -2.05664,0.61914 -0.67348,0.40172 -1.34029,1.01667 -2.00195,1.84375 -0.38991,-0.82708 -0.87418,-1.44203 -1.45313,-1.84375 -0.57895,-0.41354 -1.25348,-0.61914 -2.02148,-0.61914 z m 24.56445,0 c -0.94523,0 -2.33844,0.24789 -4.18164,0.74414 -1.16972,0.3072 -1.83849,0.54933 -2.00391,0.72656 -0.11815,0.11816 -0.17773,0.27766 -0.17773,0.47852 0,0.21267 0.0653,0.38946 0.19531,0.53125 0.14179,0.14178 0.30705,0.21289 0.49609,0.21289 0.10634,0 0.34847,-0.0596 0.72657,-0.17774 2.09132,-0.67347 3.71709,-1.00976 4.875,-1.00976 1.51237,0 2.64616,0.30171 3.40234,0.90429 0.75619,0.60259 1.13477,1.3117 1.13477,2.12696 v 2.41015 c -0.93342,-0.18904 -1.80203,-0.32549 -2.60547,-0.4082 -0.80345,-0.0945 -1.54713,-0.14062 -2.23242,-0.14062 -2.54031,0 -4.47356,0.53612 -5.79688,1.61132 -1.32332,1.0752 -1.98437,2.33392 -1.98437,3.77539 0,1.31151 0.50155,2.42225 1.50586,3.33204 1.0043,0.89796 2.39947,1.34765 4.18359,1.34765 2.4576,0 4.76747,-0.9109 6.92969,-2.73047 v 2.14453 h 3.49023 c 0.36628,0 0.62765,-0.0711 0.78125,-0.21289 0.1536,-0.14178 0.23047,-0.31857 0.23047,-0.53125 0,-0.22449 -0.0769,-0.40128 -0.23047,-0.53125 -0.1536,-0.14178 -0.41497,-0.21289 -0.78125,-0.21289 h -1.98437 v -9.85351 c 0,-1.16973 -0.52656,-2.21512 -1.57813,-3.13672 -1.05157,-0.93342 -2.51588,-1.40039 -4.39453,-1.40039 z m 65.43359,0 c -1.73686,0 -3.23194,0.37858 -4.48437,1.13476 -1.25243,0.74437 -1.87891,1.75324 -1.87891,3.0293 0,0.70892 0.22485,1.37193 0.67383,1.98633 0.44898,0.6144 1.07546,1.07366 1.87891,1.38086 0.80344,0.3072 2.1275,0.55705 3.9707,0.74609 1.85501,0.18905 3.26747,0.55991 4.23633,1.11524 0.95704,0.55532 1.43554,1.29324 1.43554,2.21484 0,0.80345 -0.47273,1.56637 -1.41796,2.28711 -0.94524,0.72074 -2.38845,1.08203 -4.32618,1.08203 -1.3115,0 -2.42029,-0.1845 -3.33007,-0.55078 -0.89797,-0.37809 -1.55522,-0.85083 -1.96875,-1.41797 -0.27176,-0.36628 -0.40625,-0.81977 -0.40625,-1.36328 0,-0.24812 -0.0769,-0.44415 -0.23047,-0.58594 -0.14179,-0.1536 -0.32053,-0.23047 -0.53321,-0.23047 -0.22449,0 -0.40704,0.0769 -0.54882,0.23047 -0.12997,0.1536 -0.19532,0.40726 -0.19532,0.76172 v 3.06641 c 0,0.35446 0.0711,0.60812 0.21289,0.76172 0.14179,0.1536 0.31858,0.23046 0.53125,0.23046 0.1536,0 0.29005,-0.0403 0.40821,-0.12304 0.12997,-0.0827 0.21836,-0.18263 0.26562,-0.30078 0.0473,-0.11816 0.0723,-0.37953 0.0723,-0.78125 1.50055,1.19335 3.42608,1.79101 5.77734,1.79101 2.35126,0 4.13458,-0.49002 5.35156,-1.4707 1.21699,-0.99249 1.82618,-2.12247 1.82618,-3.38672 0,-0.85071 -0.28443,-1.64049 -0.85157,-2.37305 -0.55532,-0.73255 -1.40469,-1.30716 -2.55078,-1.7207 -0.80344,-0.28357 -2.2409,-0.53723 -4.30859,-0.76172 -1.58326,-0.17723 -2.65747,-0.43089 -3.22461,-0.76172 -0.82708,-0.47261 -1.24024,-1.06256 -1.24024,-1.77148 0,-0.62622 0.34782,-1.19507 1.04493,-1.70313 0.9216,-0.67347 2.21489,-1.00976 3.88086,-1.00976 1.59507,0 2.87879,0.33052 3.84765,0.99218 0.66166,0.46081 1.02677,1.04694 1.09766,1.75586 0.0236,0.29539 0.1005,0.50675 0.23047,0.63672 0.14178,0.12997 0.31281,0.19532 0.51367,0.19532 0.22449,0 0.409,-0.0769 0.55078,-0.23047 0.14178,-0.1536 0.21094,-0.40726 0.21094,-0.76172 v -2.55274 c 0,-0.36627 -0.0692,-0.62569 -0.21094,-0.77929 -0.14178,-0.1536 -0.32629,-0.23047 -0.55078,-0.23047 -0.21268,0 -0.38947,0.0769 -0.53125,0.23047 -0.14179,0.1536 -0.21289,0.40149 -0.21289,0.74414 -1.28788,-1.00431 -2.95975,-1.50586 -5.01563,-1.50586 z m 65.91211,0 c -2.39852,0 -4.38939,0.79174 -5.97265,2.375 -1.57145,1.58326 -2.35743,3.57413 -2.35743,5.97265 0,2.35127 0.76869,4.29408 2.30469,5.83008 1.54782,1.52419 3.5214,2.28711 5.91992,2.28711 2.36308,0 4.50769,-0.63224 6.4336,-1.89648 1.19335,-0.77982 1.78906,-1.42358 1.78906,-1.93164 0,-0.20086 -0.0711,-0.36613 -0.21289,-0.4961 -0.12997,-0.14178 -0.29523,-0.21289 -0.49609,-0.21289 -0.18905,0 -0.40813,0.11721 -0.65625,0.35352 -0.96887,0.94523 -2.0546,1.63128 -3.25977,2.05664 -1.19335,0.42535 -2.36944,0.63867 -3.52734,0.63867 -2.00862,0 -3.64591,-0.62647 -4.91016,-1.87891 -1.26425,-1.25243 -1.89453,-2.84167 -1.89453,-4.76757 0,-1.78413 0.57266,-3.3676 1.71875,-4.75 1.14609,-1.3824 2.82372,-2.07422 5.0332,-2.07422 1.74868,0 3.13613,0.37858 4.16406,1.13476 1.03976,0.75619 1.59513,1.55369 1.66602,2.39258 0.0236,0.31902 0.1005,0.54962 0.23047,0.69141 0.14178,0.12997 0.31281,0.19531 0.51367,0.19531 0.22449,0 0.40323,-0.0769 0.5332,-0.23047 0.14179,-0.1536 0.21866,-0.41497 0.23047,-0.78125 v -3.36719 c 0,-0.36627 -0.0711,-0.62569 -0.21289,-0.77929 -0.14178,-0.1536 -0.32629,-0.23047 -0.55078,-0.23047 -0.21268,0 -0.38946,0.0769 -0.53125,0.23047 -0.14178,0.1536 -0.21289,0.41302 -0.21289,0.77929 v 0.4961 c -1.54782,-1.35877 -3.46182,-2.03711 -5.74219,-2.03711 z m 64.68946,0 c -0.94524,0 -2.33844,0.24789 -4.18164,0.74414 -1.16973,0.3072 -1.8385,0.54933 -2.00391,0.72656 -0.11816,0.11816 -0.17774,0.27766 -0.17774,0.47852 0,0.21267 0.0653,0.38946 0.19532,0.53125 0.14178,0.14178 0.30704,0.21289 0.49609,0.21289 0.10634,0 0.34847,-0.0596 0.72656,-0.17774 2.09133,-0.67347 3.7171,-1.00976 4.875,-1.00976 1.51237,0 2.64616,0.30171 3.40235,0.90429 0.75618,0.60259 1.13476,1.3117 1.13476,2.12696 v 2.41015 c -0.93341,-0.18904 -1.80202,-0.32549 -2.60547,-0.4082 -0.80344,-0.0945 -1.54713,-0.14062 -2.23242,-0.14062 -2.54031,0 -4.47355,0.53612 -5.79687,1.61132 -1.32333,1.0752 -1.98438,2.33392 -1.98438,3.77539 0,1.31151 0.50155,2.42225 1.50586,3.33204 1.00431,0.89796 2.39947,1.34765 4.18359,1.34765 2.45761,0 4.76748,-0.9109 6.92969,-2.73047 v 2.14453 h 3.49024 c 0.36627,0 0.62765,-0.0711 0.78125,-0.21289 0.1536,-0.14178 0.23047,-0.31857 0.23047,-0.53125 0,-0.22449 -0.0769,-0.40128 -0.23047,-0.53125 -0.1536,-0.14178 -0.41498,-0.21289 -0.78125,-0.21289 h -1.98438 v -9.85351 c 0,-1.16973 -0.5246,-2.21512 -1.57617,-3.13672 -1.05157,-0.93342 -2.51784,-1.40039 -4.39648,-1.40039 z m 19,0 c -1.27607,0 -2.5463,0.67834 -3.81055,2.03711 v -1.50586 h -2.74805 c -0.35446,0 -0.60812,0.0711 -0.76172,0.21289 -0.1536,0.14178 -0.23047,0.31857 -0.23047,0.53125 0,0.22449 0.0769,0.409 0.23047,0.55078 0.1536,0.14178 0.40726,0.21094 0.76172,0.21094 h 1.25781 v 12.35351 h -1.25781 c -0.35446,0 -0.60812,0.0711 -0.76172,0.21289 -0.1536,0.12997 -0.23047,0.30676 -0.23047,0.53125 0,0.21268 0.0769,0.38947 0.23047,0.53125 0.1536,0.14179 0.40726,0.21289 0.76172,0.21289 h 4.00586 c 0.35446,0 0.60812,-0.0711 0.76172,-0.21289 0.1536,-0.14178 0.23047,-0.31857 0.23047,-0.53125 0,-0.22449 -0.0769,-0.40128 -0.23047,-0.53125 -0.1536,-0.14178 -0.40726,-0.21289 -0.76172,-0.21289 h -1.25781 v -9.87109 c 0.79163,-1.18154 1.54684,-2.01557 2.26758,-2.5 0.51987,-0.34265 1.04643,-0.51367 1.57812,-0.51367 0.57896,0 1.0978,0.25942 1.5586,0.77929 0.47261,0.50807 0.70898,1.15955 0.70898,1.95118 v 11.64257 h 2.74805 c 0.35446,0 0.60812,-0.0711 0.76172,-0.21289 0.1536,-0.14178 0.23046,-0.31857 0.23046,-0.53125 0,-0.22449 -0.0769,-0.40128 -0.23046,-0.53125 -0.1536,-0.14178 -0.40726,-0.21289 -0.76172,-0.21289 h -1.24024 v -9.87109 c 0.768,-1.19335 1.45211,-1.99086 2.05469,-2.39258 0.60258,-0.41354 1.17524,-0.62109 1.71875,-0.62109 0.60258,0 1.1349,0.24789 1.5957,0.74414 0.4608,0.49624 0.69141,1.12272 0.69141,1.8789 v 11.75 h 2.74805 c 0.35446,0 0.60811,-0.0711 0.76172,-0.21289 0.1536,-0.14178 0.23046,-0.31857 0.23046,-0.53125 0,-0.22449 -0.0769,-0.40128 -0.23046,-0.53125 -0.15361,-0.14178 -0.40726,-0.21289 -0.76172,-0.21289 h -1.25977 v -10.40234 c 0,-1.06339 -0.41892,-2.04539 -1.25781,-2.94336 -0.63803,-0.69711 -1.49511,-1.04492 -2.57031,-1.04492 -0.6853,0 -1.3694,0.2056 -2.05469,0.61914 -0.67348,0.40172 -1.34225,1.01667 -2.00391,1.84375 -0.38991,-0.82708 -0.87417,-1.44203 -1.45312,-1.84375 -0.57896,-0.41354 -1.25153,-0.61914 -2.01953,-0.61914 z m 24.4746,0 c -2.36307,0 -4.34818,0.77445 -5.95507,2.32226 -1.59508,1.54782 -2.39258,3.40224 -2.39258,5.56446 0,2.37489 0.85132,4.40034 2.55273,6.07812 1.71323,1.66597 3.84632,2.5 6.39844,2.5 1.52419,0 3.00579,-0.25366 4.44727,-0.76172 1.45329,-0.51987 2.46411,-1.07524 3.03125,-1.66601 0.18904,-0.18905 0.2832,-0.38508 0.2832,-0.58594 0,-0.20086 -0.0711,-0.37189 -0.21289,-0.51367 -0.14179,-0.1536 -0.30705,-0.23047 -0.49609,-0.23047 -0.16542,0 -0.3595,0.0884 -0.58399,0.26562 -0.768,0.60259 -1.76153,1.08685 -2.97851,1.45313 -1.21699,0.36628 -2.37959,0.55078 -3.49024,0.55078 -1.9968,0 -3.67443,-0.58614 -5.0332,-1.75586 -1.34696,-1.18154 -2.15022,-2.73425 -2.41016,-4.66016 h 15.16992 c 0.0236,-2.52849 -0.75082,-4.5847 -2.32226,-6.16796 -1.57145,-1.59508 -3.57385,-2.39258 -6.00782,-2.39258 z m 66.4629,0 c -1.05157,0 -1.99705,0.19984 -2.83594,0.60156 -0.83889,0.40172 -1.77861,1.13007 -2.81836,2.18164 v -2.25195 h -2.74805 c -0.35446,0 -0.60812,0.0711 -0.76172,0.21289 -0.1536,0.14178 -0.23047,0.31857 -0.23047,0.53125 0,0.22449 0.0769,0.409 0.23047,0.55078 0.1536,0.14178 0.40726,0.21094 0.76172,0.21094 h 1.25977 v 12.35351 h -1.6836 c -0.35446,0 -0.61007,0.0711 -0.76367,0.21289 -0.1536,0.12997 -0.23047,0.30676 -0.23047,0.53125 0,0.21268 0.0769,0.38947 0.23047,0.53125 0.1536,0.14179 0.40921,0.21289 0.76367,0.21289 h 4.85547 c 0.35446,0 0.60812,-0.0711 0.76172,-0.21289 0.1536,-0.14178 0.23047,-0.31857 0.23047,-0.53125 0,-0.22449 -0.0769,-0.40128 -0.23047,-0.53125 -0.1536,-0.14178 -0.40726,-0.21289 -0.76172,-0.21289 h -1.68359 v -9.33984 c 1.33514,-1.57145 2.36324,-2.5515 3.08398,-2.94141 0.72074,-0.40172 1.57011,-0.60351 2.55078,-0.60351 1.28788,0 2.31599,0.36705 3.08399,1.09961 0.768,0.72074 1.15234,1.60663 1.15234,2.6582 v 9.12695 h -1.24023 c -0.36628,0 -0.6257,0.0711 -0.7793,0.21289 -0.1536,0.12997 -0.23047,0.30676 -0.23047,0.53125 0,0.21268 0.0769,0.38947 0.23047,0.53125 0.1536,0.14179 0.41302,0.21289 0.7793,0.21289 h 3.98828 c 0.35446,0 0.60812,-0.0711 0.76172,-0.21289 0.1536,-0.14178 0.23047,-0.31857 0.23047,-0.53125 0,-0.22449 -0.0769,-0.40128 -0.23047,-0.53125 -0.1536,-0.14178 -0.40726,-0.21289 -0.76172,-0.21289 h -1.25977 v -9.375 c 0,-0.86252 -0.27094,-1.70231 -0.81445,-2.51758 -0.53169,-0.82707 -1.1274,-1.41702 -1.78906,-1.77148 -0.93342,-0.48443 -1.96729,-0.72656 -3.10156,-0.72656 z m 19.77734,0 c -2.04406,0 -3.81009,0.75521 -5.29883,2.26758 -1.47692,1.51237 -2.21484,3.33797 -2.21484,5.47656 0,2.13858 0.73792,3.96995 2.21484,5.49414 1.48874,1.51237 3.25477,2.26953 5.29883,2.26953 2.51668,0 4.57289,-1.09345 6.16797,-3.2793 v 4.4668 c 0,0.768 -0.12874,1.40024 -0.38867,1.89649 -0.4608,0.86252 -1.04694,1.51781 -1.75586,1.96679 -0.69711,0.44899 -1.48309,0.67383 -2.35742,0.67383 l -4.27149,-0.0176 c -0.35446,0 -0.60812,0.0711 -0.76172,0.21289 -0.1536,0.14179 -0.23047,0.32434 -0.23047,0.54883 0,0.22449 0.0769,0.40128 0.23047,0.53125 0.1536,0.14179 0.40726,0.21289 0.76172,0.21289 h 4.21875 c 0.90979,0 1.63618,-0.11721 2.17969,-0.35351 0.54351,-0.23631 1.14693,-0.63218 1.80859,-1.1875 0.66166,-0.55533 1.1344,-1.09341 1.41797,-1.61329 0.42535,-0.77981 0.63672,-1.66571 0.63672,-2.6582 v -14.87109 h 2.00391 c 0.35446,0 0.60811,-0.0692 0.76171,-0.21094 0.1536,-0.14178 0.23047,-0.32053 0.23047,-0.5332 0,-0.2245 -0.0769,-0.40705 -0.23047,-0.54883 -0.1536,-0.14179 -0.40725,-0.21289 -0.76171,-0.21289 h -3.49219 v 2.73047 c -1.59508,-2.17403 -3.65129,-3.26172 -6.16797,-3.26172 z m 45.56641,0 c -1.05157,0 -1.99705,0.19984 -2.83594,0.60156 -0.83889,0.40172 -1.77665,1.13007 -2.81641,2.18164 v -2.25195 h -2.74804 c -0.35447,0 -0.60812,0.0711 -0.76172,0.21289 -0.1536,0.14178 -0.23047,0.31857 -0.23047,0.53125 0,0.22449 0.0769,0.409 0.23047,0.55078 0.1536,0.14178 0.40725,0.21094 0.76172,0.21094 h 1.25781 v 12.35351 h -1.6836 c -0.35446,0 -0.60811,0.0711 -0.76171,0.21289 -0.15361,0.12997 -0.23047,0.30676 -0.23047,0.53125 0,0.21268 0.0769,0.38947 0.23047,0.53125 0.1536,0.14179 0.40725,0.21289 0.76171,0.21289 h 4.85743 c 0.35446,0 0.60811,-0.0711 0.76171,-0.21289 0.1536,-0.14178 0.23047,-0.31857 0.23047,-0.53125 0,-0.22449 -0.0769,-0.40128 -0.23047,-0.53125 -0.1536,-0.14178 -0.40725,-0.21289 -0.76171,-0.21289 h -1.6836 v -9.33984 c 1.33514,-1.57145 2.36129,-2.5515 3.08203,-2.94141 0.72074,-0.40172 1.57206,-0.60351 2.55274,-0.60351 1.28787,0 2.31598,0.36705 3.08398,1.09961 0.768,0.72074 1.15235,1.60663 1.15235,2.6582 v 9.12695 h -1.24024 c -0.36628,0 -0.62765,0.0711 -0.78125,0.21289 -0.1536,0.12997 -0.23047,0.30676 -0.23047,0.53125 0,0.21268 0.0769,0.38947 0.23047,0.53125 0.1536,0.14179 0.41497,0.21289 0.78125,0.21289 h 3.98633 c 0.35446,0 0.61007,-0.0711 0.76367,-0.21289 0.1536,-0.14178 0.23047,-0.31857 0.23047,-0.53125 0,-0.22449 -0.0769,-0.40128 -0.23047,-0.53125 -0.1536,-0.14178 -0.40921,-0.21289 -0.76367,-0.21289 h -1.25781 v -9.375 c 0,-0.86252 -0.27095,-1.70231 -0.81446,-2.51758 -0.53169,-0.82707 -1.12935,-1.41702 -1.79101,-1.77148 -0.93342,-0.48443 -1.96729,-0.72656 -3.10156,-0.72656 z m 20.66601,0 c -2.36308,0 -4.34818,0.77445 -5.95508,2.32226 -1.59507,1.54782 -2.39258,3.40224 -2.39258,5.56446 0,2.37489 0.84937,4.40034 2.55079,6.07812 1.71323,1.66597 3.84631,2.5 6.39843,2.5 1.52419,0 3.00775,-0.25366 4.44922,-0.76172 1.45329,-0.51987 2.46411,-1.07524 3.03125,-1.66601 0.18905,-0.18905 0.28321,-0.38508 0.28321,-0.58594 0,-0.20086 -0.0711,-0.37189 -0.2129,-0.51367 -0.14178,-0.1536 -0.30704,-0.23047 -0.49609,-0.23047 -0.16541,0 -0.36144,0.0884 -0.58594,0.26562 -0.768,0.60259 -1.75957,1.08685 -2.97656,1.45313 -1.21698,0.36628 -2.38154,0.55078 -3.49219,0.55078 -1.9968,0 -3.67443,-0.58614 -5.0332,-1.75586 -1.34695,-1.18154 -2.15022,-2.73425 -2.41016,-4.66016 h 15.17188 c 0.0236,-2.52849 -0.75082,-4.5847 -2.32227,-6.16796 -1.57144,-1.59508 -3.57384,-2.39258 -6.00781,-2.39258 z m -483.96484,0.53125 c -0.36628,0 -0.6257,0.0711 -0.7793,0.21289 -0.1536,0.14178 -0.23047,0.32433 -0.23047,0.54883 0,0.21267 0.0769,0.39142 0.23047,0.5332 0.16542,0.14178 0.42484,0.21094 0.7793,0.21094 h 4.34179 v 12.35351 h -5.84765 c -0.35446,0 -0.61007,0.0711 -0.76367,0.21289 -0.1536,0.12997 -0.23047,0.30676 -0.23047,0.53125 0,0.21268 0.0769,0.38947 0.23047,0.53125 0.1536,0.14179 0.40921,0.21289 0.76367,0.21289 h 13.18554 c 0.36628,0 0.6257,-0.0711 0.7793,-0.21289 0.1536,-0.14178 0.23047,-0.31857 0.23047,-0.53125 0,-0.22449 -0.0769,-0.40128 -0.23047,-0.53125 -0.1536,-0.14178 -0.41302,-0.21289 -0.7793,-0.21289 h -5.8496 v -13.85937 z m 43.5625,0 c -0.36628,0 -0.6257,0.0711 -0.7793,0.21289 -0.1536,0.14178 -0.23047,0.32433 -0.23047,0.54883 0,0.21267 0.0769,0.39142 0.23047,0.5332 0.16542,0.14178 0.42484,0.21094 0.7793,0.21094 h 4.34179 v 12.35351 h -5.84765 c -0.35446,0 -0.60812,0.0711 -0.76172,0.21289 -0.1536,0.12997 -0.23047,0.30676 -0.23047,0.53125 0,0.21268 0.0769,0.38947 0.23047,0.53125 0.1536,0.14179 0.40726,0.21289 0.76172,0.21289 h 13.18554 c 0.36628,0 0.6257,-0.0711 0.7793,-0.21289 0.1536,-0.14178 0.23047,-0.31857 0.23047,-0.53125 0,-0.22449 -0.0769,-0.40128 -0.23047,-0.53125 -0.1536,-0.14178 -0.41302,-0.21289 -0.7793,-0.21289 h -5.84765 v -13.85937 z m 87.12695,0 c -0.36628,0 -0.6257,0.0711 -0.7793,0.21289 -0.1536,0.14178 -0.23047,0.32433 -0.23047,0.54883 0,0.21267 0.0769,0.39142 0.23047,0.5332 0.16542,0.14178 0.42484,0.21094 0.7793,0.21094 h 4.3418 v 12.35351 h -5.84766 c -0.35446,0 -0.60812,0.0711 -0.76172,0.21289 -0.1536,0.12997 -0.23047,0.30676 -0.23047,0.53125 0,0.21268 0.0769,0.38947 0.23047,0.53125 0.1536,0.14179 0.40726,0.21289 0.76172,0.21289 h 13.18555 c 0.36628,0 0.62569,-0.0711 0.7793,-0.21289 0.1536,-0.14178 0.23046,-0.31857 0.23046,-0.53125 0,-0.22449 -0.0769,-0.40128 -0.23046,-0.53125 -0.15361,-0.14178 -0.41302,-0.21289 -0.7793,-0.21289 h -5.84766 v -13.85937 z m 65.3457,0 c -0.36627,0 -0.62569,0.0711 -0.77929,0.21289 -0.1536,0.14178 -0.23047,0.32433 -0.23047,0.54883 0,0.21267 0.0769,0.39142 0.23047,0.5332 0.16541,0.14178 0.42483,0.21094 0.77929,0.21094 h 4.3418 v 12.35351 h -5.84766 c -0.35446,0 -0.61007,0.0711 -0.76367,0.21289 -0.1536,0.12997 -0.23047,0.30676 -0.23047,0.53125 0,0.21268 0.0769,0.38947 0.23047,0.53125 0.1536,0.14179 0.40921,0.21289 0.76367,0.21289 h 13.18555 c 0.36628,0 0.6257,-0.0711 0.7793,-0.21289 0.1536,-0.14178 0.23047,-0.31857 0.23047,-0.53125 0,-0.22449 -0.0769,-0.40128 -0.23047,-0.53125 -0.1536,-0.14178 -0.41302,-0.21289 -0.7793,-0.21289 h -5.84961 v -13.85937 z m 239.59766,0 c -0.36628,0 -0.6257,0.0711 -0.7793,0.21289 -0.1536,0.14178 -0.23047,0.32433 -0.23047,0.54883 0,0.21267 0.0769,0.39142 0.23047,0.5332 0.16542,0.14178 0.42484,0.21094 0.7793,0.21094 h 4.3418 v 12.35351 h -5.84766 c -0.35446,0 -0.60812,0.0711 -0.76172,0.21289 -0.1536,0.12997 -0.23047,0.30676 -0.23047,0.53125 0,0.21268 0.0769,0.38947 0.23047,0.53125 0.1536,0.14179 0.40726,0.21289 0.76172,0.21289 h 13.18555 c 0.36627,0 0.62569,-0.0711 0.77929,-0.21289 0.1536,-0.14178 0.23047,-0.31857 0.23047,-0.53125 0,-0.22449 -0.0769,-0.40128 -0.23047,-0.53125 -0.1536,-0.14178 -0.41302,-0.21289 -0.77929,-0.21289 h -5.84766 v -13.85937 z m -104.14063,0.97461 c 1.73687,0 3.23195,0.51503 4.48438,1.54297 1.26425,1.02793 2.04446,2.36156 2.33984,4.0039 h -13.64648 c 0.3072,-1.66597 1.08546,-3.00536 2.33789,-4.02148 1.25243,-1.01613 2.74751,-1.52539 4.48437,-1.52539 z m 86.3125,0 c 1.66597,0 3.09571,0.60342 4.28907,1.80859 1.20517,1.20517 1.80664,2.68101 1.80664,4.42969 0,1.74868 -0.60147,3.23223 -1.80664,4.44922 -1.19336,1.20517 -2.6231,1.80859 -4.28907,1.80859 -1.66596,0 -3.0957,-0.60342 -4.28906,-1.80859 -1.19335,-1.21699 -1.79101,-2.70054 -1.79101,-4.44922 0,-1.73686 0.59766,-3.20694 1.79101,-4.41211 1.19336,-1.21699 2.6231,-1.82617 4.28906,-1.82617 z m 66.16016,0 c 1.73686,0 3.23195,0.51503 4.48438,1.54297 1.26424,1.02793 2.0425,2.36156 2.33789,4.0039 h -13.64649 c 0.3072,-1.66597 1.08742,-3.00536 2.33985,-4.02148 1.25243,-1.01613 2.74751,-1.52539 4.48437,-1.52539 z m -392.19531,6.38086 c 0.86252,0 1.68503,0.0461 2.46484,0.14062 0.77982,0.0945 1.51774,0.2425 2.21485,0.44336 v 3.2793 c -1.16973,1.12246 -2.31123,1.94301 -3.42188,2.46289 -1.09883,0.50806 -2.2922,0.76367 -3.58008,0.76367 -1.34695,0 -2.3731,-0.30747 -3.08203,-0.92187 -0.69711,-0.6144 -1.04687,-1.37157 -1.04687,-2.26954 0,-0.96886 0.46121,-1.80093 1.38281,-2.49804 1.21698,-0.93342 2.90614,-1.40039 5.06836,-1.40039 z m 196.03515,0 c 0.86253,0 1.68503,0.0461 2.46485,0.14062 0.77981,0.0945 1.51773,0.2425 2.21484,0.44336 v 3.2793 c -1.16972,1.12246 -2.31123,1.94301 -3.42187,2.46289 -1.09883,0.50806 -2.2922,0.76367 -3.58008,0.76367 -1.34695,0 -2.37311,-0.30747 -3.08203,-0.92187 -0.69711,-0.6144 -1.04688,-1.37157 -1.04688,-2.26954 0,-0.96886 0.46122,-1.80093 1.38282,-2.49804 1.21698,-0.93342 2.90614,-1.40039 5.06835,-1.40039 z" />
  <path
     style="fill:#00c0ff;fill-rule:evenodd;stroke:none;stroke-width:1.52155;stroke-linecap:round"
     d="m 182.92457,177.854 c 1.3695,-3.56888 28.92528,-50.42458 29.65463,-50.42458 0.77458,0 26.96997,44.50572 29.1585,49.54001 l 0.95315,2.19253 h -30.1341 c -28.18133,0 -30.10157,-0.0847 -29.63218,-1.30796 z"
     id="path1" />
  <path
     id="path2"
     style="fill:#f9f9f9;fill-opacity:1;fill-rule:evenodd;stroke:none;stroke-width:1.52155;stroke-linecap:round"
     d="m 169.65234,224.04688 -21.11132,0.0117 c -11.61128,0.006 -21.86174,0.21099 -22.7793,0.45703 -2.36871,0.63519 -2.84612,3.91066 -1.39649,9.57813 1.97827,7.73419 6.62711,12.91753 13.44336,14.98828 1.40433,0.42663 5.97787,0.68425 10.16211,0.57227 5.99331,-0.1604 8.25308,-0.54312 10.65039,-1.80664 7.04481,-3.71301 10.98678,-10.39384 11.01368,-18.66407 z m 83.49024,0 0.35156,5.89648 c 0.42315,7.08573 2.21834,11.02128 6.83008,14.96875 1.77993,1.52355 4.78787,3.24959 6.68359,3.83398 4.18972,1.29155 15.47283,1.38591 18.80274,0.15821 4.80518,-1.77161 9.10425,-5.52497 11.16601,-9.74805 2.1794,-4.46404 3.23624,-10.09442 2.46875,-13.15234 l -0.49023,-1.95703 h -22.90625 z" />
</svg>
